<svg width="64" height="64" viewBox="0 0 64 64" fill="none" xmlns="http://www.w3.org/2000/svg">
<path d="M6.11094 55.8455V61.1472C6.11094 62.0309 5.83897 62.7251 5.30739 63.2301C4.76344 63.7476 4.03407 64.0001 3.09453 64.0001C2.15499 64.0001 1.45034 63.7476 0.906401 63.2553C0.362459 62.763 0.0904873 62.0813 0.078125 61.2103V55.8581H1.69759V61.1598C1.69759 61.69 1.82121 62.0687 2.06846 62.3086C2.31571 62.5484 2.66185 62.6746 3.09453 62.6746C4.00934 62.6746 4.46675 62.1823 4.47911 61.2103V55.8581H6.11094V55.8455Z" fill="white"/>
<path d="M13.8295 63.8865H12.21L9.04524 58.5973V63.8865H7.42578V55.8455H9.04524L12.21 61.1472V55.8455H13.8295V63.8865Z" fill="white"/>
<path d="M18.1857 61.084H15.1445V59.7964H18.1857V61.084Z" fill="white"/>
<path d="M25.9629 63.8865H24.3311V60.4403H21.1663V63.8865H19.5469V55.8455H21.1663V59.1023H24.3311V55.8455H25.9629V63.8865Z" fill="white"/>
<path d="M31.9227 62.2328H29.0794L28.5354 63.8865H26.8047L29.7346 55.8455H31.2428L34.185 63.8865H32.4543L31.9103 62.2328H31.9227ZM29.512 60.8948H31.4776L30.4887 57.8904L29.512 60.8948Z" fill="white"/>
<path d="M34.9264 63.8865V55.8455H37.6832C38.6351 55.8455 39.3645 56.0348 39.859 56.4009C40.3535 56.7796 40.6007 57.3224 40.6007 58.0419C40.6007 58.4332 40.5018 58.7867 40.304 59.077C40.1062 59.38 39.8343 59.5946 39.4758 59.7334C39.8837 59.8344 40.1928 60.049 40.4277 60.352C40.6625 60.6549 40.7738 61.0462 40.7738 61.5007C40.7738 62.2707 40.5266 62.864 40.0444 63.2553C39.5623 63.6593 38.87 63.8612 37.9799 63.8612H34.9141L34.9264 63.8865ZM36.5459 59.2159H37.745C38.5609 59.2032 38.9689 58.8624 38.9689 58.2186C38.9689 57.8526 38.87 57.5875 38.6598 57.436C38.4497 57.2719 38.1283 57.1961 37.6832 57.1961H36.5459V59.2285V59.2159ZM36.5459 60.3898V62.561H37.9305C38.3137 62.561 38.6104 62.4727 38.8206 62.2833C39.0307 62.094 39.142 61.8415 39.142 61.5133C39.142 60.7812 38.7711 60.4025 38.017 60.3898H36.5335H36.5459Z" fill="white"/>
<path d="M43.7295 63.8865H42.0977V55.8455H43.7295V63.8865Z" fill="white"/>
<path d="M50.9981 57.1835H48.5874V63.8865H46.968V57.1835H44.582V55.8455H50.9981V57.1835Z" fill="white"/>
<path d="M55.7235 62.2328H52.8801L52.3362 63.8865H50.6055L53.5353 55.8455H55.0435L57.9858 63.8865H56.255L55.7111 62.2328H55.7235ZM53.3128 60.8948H55.2784L54.2894 57.8904L53.3128 60.8948Z" fill="white"/>
<path d="M64.002 57.1835H61.5913V63.8865H59.9719V57.1835H57.5859V55.8455H64.002V57.1835Z" fill="white"/>
<path d="M23.7741 50.8338C25.8386 47.9683 31.822 44.7241 37.6199 44.7241C43.4178 44.7241 49.9698 48.1576 52.4052 46.2515C52.4052 46.2515 49.7844 48.549 44.5428 48.549C39.3012 48.549 37.249 45.8728 33.6887 45.8728C30.1283 45.8728 26.2095 48.7383 24.7013 51.2251L23.7617 50.8464L23.7741 50.8338Z" fill="white"/>
<path d="M42.3047 44.3327C42.3047 44.3327 43.986 43.3733 44.9255 41.4672C45.865 39.5611 48.2881 36.4936 50.538 34.7769C50.538 34.7769 47.9172 43.1839 45.1109 43.5626C45.1109 43.5626 44.7401 43.752 45.4818 43.752C46.2359 43.5626 49.7839 42.4139 51.0943 42.2246C52.4047 42.0352 55.3964 41.2652 56.1505 40.5078C56.9046 39.7378 57.2755 39.9398 57.2755 39.9398C57.2755 39.9398 53.9129 45.6707 47.7317 45.6707C47.9172 45.292 44.9255 45.1027 42.3047 44.3327Z" fill="white"/>
<path d="M49.6016 41.4674C49.6016 41.4674 50.1579 40.5081 50.3557 38.7913C50.5411 37.0745 51.4806 33.2497 54.4723 29.0461C54.4723 29.0461 54.8432 35.7365 51.6661 39.7507C51.6661 39.7507 51.4806 40.3187 51.8515 39.94C52.2224 39.5613 54.4723 37.0745 58.9598 34.0197C58.9598 34.0197 61.3952 32.1136 61.3952 31.5329C61.3952 31.3436 59.5285 40.71 49.6016 41.4674Z" fill="white"/>
<path d="M55.3964 35.1683C55.3964 35.1683 55.5818 34.0196 55.5818 33.2622C55.5818 32.3028 55.2109 29.248 55.2109 27.9099C55.2109 26.5718 55.3964 23.8957 56.3359 22.179C56.3359 22.179 56.3359 23.7064 56.7068 24.4764C57.0776 25.2464 57.4609 27.9099 57.4609 28.3012C57.4609 28.6926 57.4609 30.9774 56.7068 32.1261C56.7068 32.1261 57.0776 31.9367 57.6463 30.9774C58.2026 30.018 59.3276 28.4906 61.0089 26.5845C62.6901 24.8677 63.2588 23.1509 63.2588 23.1509C63.2588 23.1509 63.6297 26.2058 61.3921 29.45C59.1422 32.6941 58.215 32.1261 56.9046 33.4641C56.9046 33.4641 55.5942 35.1809 55.4087 35.1809" fill="white"/>
<path d="M58.9563 27.708C58.9563 27.708 58.9563 25.8019 58.5855 25.2212C58.2146 24.6532 56.1501 20.8283 56.5209 16.2461C56.5209 16.2461 56.8918 15.8674 57.4605 17.7735C58.0168 19.6796 58.9563 20.2603 59.3272 21.977C59.6981 23.8831 59.6981 24.6532 59.6981 24.6532C59.6981 24.6532 59.8835 24.8425 59.8835 24.6532C59.8835 24.4638 60.0689 21.977 61.1939 19.6796C62.3189 17.3822 63.6293 15.2867 63.4438 13.7593C63.4438 13.7593 64.0002 13.7593 64.0002 16.2461C63.8147 18.7328 63.246 22.9364 58.944 27.708" fill="white"/>
<path d="M60.0714 20.2603C60.0714 20.2603 59.3173 18.5436 58.761 17.9629C58.2047 17.3948 54.6443 12.2319 54.2734 9.9345C54.2734 9.9345 54.6443 9.74515 54.8297 10.3132C55.2006 10.8812 56.8943 12.6106 57.2651 12.8C57.636 12.9893 59.3173 14.9081 59.5151 17.0035C59.5151 17.0035 59.7005 17.1929 59.3296 13.7593C58.9588 10.3258 60.4546 8.02839 59.3296 5.73096C59.3296 5.73096 61.0109 5.92031 61.9504 12.9893C61.9504 12.9893 61.9504 15.4761 60.64 18.5309C60.64 18.7203 60.2692 20.2477 60.0837 20.2477" fill="white"/>
<path d="M58.7611 12.6105C58.7611 12.6105 57.4507 11.2725 56.3257 10.5024C55.2007 9.9344 51.8382 6.48825 51.2695 4.00147C51.2695 4.00147 51.455 3.81212 52.5799 5.15018C53.334 6.2989 54.2612 5.71823 56.6966 8.78568C56.6966 8.78568 57.0675 9.5557 57.2529 9.35373C57.4383 9.35373 57.2529 8.58371 57.2529 8.58371C57.2529 8.58371 56.6966 6.6776 56.6966 5.90758C56.6966 5.13756 55.5716 1.51468 55.3862 1.13599C55.3862 1.13599 58.7487 3.0421 59.132 8.39436C59.132 8.39436 58.9465 12.4086 58.7611 12.5979" fill="white"/>
<path d="M55.9521 6.87968C55.9521 6.87968 56.1375 2.29743 49.9688 0C49.9688 0 52.0333 4.39289 53.7145 5.35226C55.3958 6.31163 55.9645 6.87968 55.9645 6.87968" fill="white"/>
<path d="M40.2405 50.8338C38.176 47.9683 32.1926 44.7241 26.3947 44.7241C20.5968 44.7241 14.0448 48.1576 11.6094 46.2515C11.6094 46.2515 14.2302 48.549 19.4718 48.549C24.7134 48.549 26.7656 45.8728 30.3259 45.8728C33.8863 45.8728 37.8051 48.7383 39.3133 51.2251L40.2529 50.8464L40.2405 50.8338Z" fill="white"/>
<path d="M21.5255 44.3327C21.5255 44.3327 19.8442 43.3733 18.9046 41.4672C17.9651 39.5611 15.7275 36.4936 13.2922 34.7769C13.2922 34.7769 15.913 43.1839 18.7192 43.5626C18.7192 43.5626 19.0901 43.752 18.3483 43.752C17.5942 43.5626 14.0463 42.4139 12.7358 42.2246C11.4254 42.0352 8.43376 41.2652 7.67966 40.5078C6.92556 39.7378 6.55469 39.9398 6.55469 39.9398C6.55469 39.9398 9.91724 45.6707 16.0984 45.6707C16.0984 45.292 19.0901 45.1027 21.5255 44.3327Z" fill="white"/>
<path d="M14.4187 41.4674C14.4187 41.4674 13.8624 40.5081 13.6646 38.7913C13.4791 37.0745 12.5396 33.2497 9.5479 29.0461C9.5479 29.0461 9.17703 35.7365 12.3541 39.7507C12.3541 39.7507 12.5396 40.3187 12.1687 39.94C11.7978 39.5613 9.5479 37.0745 5.06038 34.0197C5.06038 34.0197 2.625 32.1136 2.625 31.5329C2.625 31.3436 4.30628 40.71 14.4187 41.4674Z" fill="white"/>
<path d="M8.61589 35.1683C8.61589 35.1683 8.43046 34.0196 8.43046 33.2622C8.43046 32.3028 8.80133 29.248 8.80133 27.9099C8.80133 26.5718 8.61589 23.8957 7.67636 22.179C7.67636 22.179 7.67636 23.7064 7.30549 24.4764C6.93462 25.2464 6.55139 27.9099 6.55139 28.3012C6.55139 28.6926 6.55139 30.9774 7.30549 32.1261C7.30549 32.1261 6.93462 31.9367 6.36595 30.9774C5.80965 30.018 4.68467 28.4906 3.0034 26.5845C1.32212 24.8677 0.753456 23.1509 0.753456 23.1509C0.753456 23.1509 0.382586 26.2058 2.62017 29.45C4.87011 32.6941 5.79728 32.1261 7.10769 33.4641C6.92226 33.4641 8.4181 35.1809 8.60353 35.1809" fill="white"/>
<path d="M5.05619 27.708C5.05619 27.708 5.05619 25.8019 5.42706 25.2212C5.79793 24.6532 7.86244 20.8283 7.4792 16.2461C7.4792 16.2461 7.10833 15.8674 6.53967 17.7735C5.98336 19.6796 5.04383 20.2603 4.67296 21.977C4.30209 23.8831 4.30209 24.6532 4.30209 24.6532C4.30209 24.6532 4.11665 24.8425 4.11665 24.6532C4.11665 24.4638 3.93122 21.977 2.80625 19.6796C1.68128 17.3822 0.370871 15.2867 0.556305 13.7593C0.556305 13.7593 0 13.7593 0 16.2461C0 18.7328 0.754102 22.9364 5.05619 27.708Z" fill="white"/>
<path d="M3.94341 20.2602C3.94341 20.2602 4.69752 18.5434 5.25382 17.9628C5.81012 17.3947 9.37047 12.2318 9.74134 9.93436C9.74134 9.93436 9.37047 9.74501 9.18504 10.3131C8.81417 10.8811 7.13289 12.6105 6.74966 12.7998C6.19336 13.1785 4.31428 15.0973 4.31428 17.1927C4.31428 17.1927 4.12885 17.3821 4.49972 13.9486C4.87059 10.515 3.37475 8.2176 4.49972 5.92017C4.49972 5.92017 2.81844 6.10952 1.87891 13.1785C1.87891 13.1785 1.87891 15.6653 3.18931 18.7201C3.18931 18.7201 3.74562 20.2476 3.94341 20.2476" fill="white"/>
<path d="M5.25443 12.6105C5.25443 12.6105 6.56484 11.2725 7.68981 10.5024C8.81478 9.9344 12.1773 6.48825 12.746 4.00147C12.746 4.00147 12.5606 3.81212 11.4356 5.15018C10.6815 6.2989 9.75432 5.71823 7.31894 8.78568C7.31894 8.78568 6.94807 9.5557 6.76264 9.35373C6.5772 9.35373 6.94807 8.58371 6.94807 8.58371C6.94807 8.58371 7.50437 6.6776 7.50437 5.90758C7.50437 5.13756 8.62935 1.51468 8.81478 1.13599C8.81478 1.13599 5.45223 3.0421 5.069 8.39436C4.88356 8.39436 5.069 12.4086 5.25443 12.5979" fill="white"/>
<path d="M8.05924 6.87968C8.05924 6.87968 7.8738 2.29743 14.0426 0C14.0426 0 11.9905 4.39289 10.2968 5.35226C8.61554 6.31163 8.04688 6.87968 8.04688 6.87968" fill="white"/>
<path d="M32.0077 0.41626C19.9915 0.41626 10.25 9.22729 10.25 20.0959C10.25 30.9645 19.9915 39.7756 32.0077 39.7756C44.0239 39.7756 53.7654 30.9645 53.7654 20.0959C53.7654 9.22729 44.0239 0.41626 32.0077 0.41626ZM34.2082 12.9512C34.3071 13.0648 34.6779 13.5444 35.2095 14.2514C34.6903 13.7843 34.0104 13.494 33.2563 13.494C31.6245 13.494 30.314 14.8446 30.314 16.4983C30.314 18.1519 31.6368 19.5026 33.2563 19.5026C33.7013 19.5026 34.1216 19.4016 34.5049 19.2123C34.2082 19.4269 34.0351 19.5405 34.0351 19.5405C34.0351 19.5405 32.9719 20.3736 31.2289 19.4774C30.5366 19.1239 29.2633 18.4044 27.9652 17.6723C29.2385 15.2738 30.314 13.2162 30.4006 13.0016C31.5503 10.6285 32.4898 10.6916 34.2082 12.9385V12.9512ZM26.8032 19.8939C28.3979 20.7776 29.7948 21.535 29.7948 21.535C29.7948 21.535 30.2275 21.6612 30.2275 22.4312L30.1533 25.6502C27.3347 25.688 25.1095 25.7133 24.9117 25.7133C23.7373 25.7133 24.1329 24.8928 24.4419 24.3373C25.0353 23.2265 25.9131 21.5855 26.8032 19.8939ZM34.8881 24.0849C34.8881 24.0849 34.7892 22.3681 36.285 21.4719L39.1407 19.5152C41.2053 22.2924 42.9607 24.6655 43.1338 24.9054C43.3068 25.1578 43.2821 25.4734 42.6393 25.4734C42.1572 25.4734 38.9306 25.5239 34.9128 25.5744L34.8881 24.0722V24.0849ZM35.3455 18.6442C35.8895 18.1014 36.2232 17.344 36.2232 16.5109C36.2232 16.0312 36.112 15.5642 35.9142 15.1602C36.3716 15.7661 36.8784 16.4478 37.4224 17.1799C36.6559 17.7227 35.9389 18.2277 35.3579 18.6442H35.3455ZM14.0329 20.5377C14.0329 12.0423 21.8459 5.14998 31.5503 4.96063C30.4006 7.10659 27.8539 11.8656 25.5051 16.2711C24.5903 15.7409 23.9598 15.3748 23.9598 15.3748C23.9598 15.3748 22.5752 14.7942 21.9942 15.6904C21.9942 15.6904 21.2772 16.7129 22.2785 17.344C22.5752 17.5334 23.3541 17.9752 24.306 18.5054C22.2538 22.3429 20.5849 25.4734 20.5231 25.5997C19.4599 27.7961 20.9929 28.9701 23.4777 29.0079C23.7373 29.0079 26.5065 28.9827 30.0915 28.9448L29.9185 36.0391C20.9805 35.1555 14.0205 28.5661 14.0205 20.5504L14.0329 20.5377ZM35.123 35.875L34.987 28.8943C40.0432 28.8438 45.2601 28.7933 47.1763 28.7807C44.5431 32.4541 40.2039 35.0923 35.123 35.875ZM42.8371 16.9906L44.951 15.5515C44.951 15.5515 46.1996 14.6553 45.5692 13.6454C44.951 12.6229 43.9497 12.6861 42.5775 13.5823C42.3055 13.759 41.7986 14.0999 41.1682 14.5417L34.8387 5.14998C43.3687 6.34919 49.8836 12.7871 49.8836 20.5377C49.8836 22.406 49.5004 24.1985 48.8081 25.8521L42.8371 16.9906Z" fill="white"/>
</svg>
