<svg width="687" height="296" viewBox="0 0 687 296" fill="none" xmlns="http://www.w3.org/2000/svg">
<path d="M25.1617 90.9987H17.9042L0.72998 40.9426H10.9412L21.9796 75.012L34.0584 40.5011H39.3974L50.7911 75.012L62.6466 40.9426H72.8578L54.5569 90.9987H47.3045L36.4995 59.2639L25.1617 90.9987Z" fill="#010101"/>
<path d="M135.399 66.0189C135.693 80.7673 124.005 92.9781 109.267 93.2724C94.5694 93.5719 82.3789 81.8584 82.0845 67.0898C81.7902 52.3414 93.4782 40.1307 108.216 39.8363H108.754C122.691 39.0598 134.622 49.7734 135.384 63.7402C135.419 64.5015 135.434 65.2577 135.384 66.0189H135.399ZM125.375 66.0189C125.04 56.8228 117.342 49.6262 108.161 49.9561C98.9847 50.286 91.7984 58.0053 92.1384 67.2014C92.448 76.1794 99.8018 83.2846 108.754 83.2643C117.763 83.452 125.208 76.2859 125.391 67.2573C125.411 66.8716 125.391 66.4402 125.375 66.0189Z" fill="#010101"/>
<path d="M164.652 40.963C169.214 40.5722 173.752 41.907 177.39 44.7186C180.659 47.5302 182.471 51.6563 182.344 55.9651C182.679 62.8317 177.802 68.8509 171.041 69.9217L186.607 91.014H174.472L161.14 70.9012H159.942V91.014H150.213V40.963H164.657H164.652ZM159.942 63.999H162.713C164.576 63.999 172.295 63.7808 172.295 56.432C172.295 49.0832 164.667 48.9208 162.86 48.9208H159.947V63.999H159.942Z" fill="#010101"/>
<path d="M208.729 40.963V82.6147H224.168V91.014H199V40.963H208.729Z" fill="#010101"/>
<path d="M249.747 40.9579C256.299 40.42 262.856 42.1404 268.306 45.825C274.529 50.6362 278.091 58.1322 277.888 66.019C278.132 74.0072 274.361 81.5793 267.865 86.2079C262.49 89.8366 256.05 91.5165 249.584 90.9988H236.693V40.963H249.747V40.9579ZM246.438 82.6147H249.427C253.731 82.8024 257.994 81.6504 261.633 79.3006C265.693 76.1185 268.002 71.1753 267.855 66.019C267.982 60.8525 265.713 55.9093 261.724 52.6612C258.085 50.2708 253.781 49.1086 249.447 49.3421H246.453V82.6147H246.438Z" fill="#010101"/>
<path d="M15.9807 121.328V152.768C15.8284 155.448 16.7013 158.097 18.3812 160.183C22.4819 164.573 29.3486 164.812 33.7233 160.701C33.9111 160.533 34.0786 160.366 34.241 160.183C35.9412 158.092 36.7887 155.448 36.6415 152.768V121.328H46.3756V151.931C46.67 156.691 45.3556 161.391 42.6454 165.289C34.3933 174.317 20.396 174.952 11.3826 166.674C10.9004 166.233 10.4386 165.771 10.0021 165.289C7.28695 161.386 5.95726 156.686 6.25162 151.931V121.328H15.9807Z" fill="#010101"/>
<path d="M81.11 121.328C85.6725 120.937 90.2148 122.272 93.8537 125.063C97.122 127.875 98.9288 132.026 98.8019 136.315C98.9897 140.979 96.7922 145.42 92.9655 148.084C91.3262 149.195 89.4586 149.931 87.4996 150.271L103.065 171.364H90.9304L77.5828 151.266H76.385V171.384H66.656V121.328H81.1151H81.11ZM76.385 144.364H79.1561C81.0186 144.364 88.7379 144.146 88.7379 136.797C88.7379 129.448 81.11 129.286 79.3032 129.286H76.3901V144.364H76.385Z" fill="#010101"/>
<path d="M130.877 121.323C135.181 121.013 139.464 122.099 143.077 124.469C146.128 127.027 147.823 130.859 147.711 134.833C147.879 138.923 145.681 142.73 142.098 144.663C144.534 144.993 146.823 146.105 148.599 147.81C151.035 150.307 152.329 153.692 152.203 157.189C152.294 161.02 150.746 164.725 147.939 167.314C144.377 170.201 139.87 171.643 135.287 171.364H118.504V121.328H130.877V121.323ZM128.238 142.105H131.009C134.627 142.623 137.987 140.106 138.505 136.477C138.54 136.183 138.581 135.888 138.581 135.574C138.581 131.001 135.069 129.265 131.085 129.265H128.238V142.105ZM128.238 163.426H132.43C134.739 163.553 137.028 163.091 139.099 162.076C141.093 160.853 142.255 158.635 142.164 156.306C142.24 153.824 140.784 151.57 138.51 150.606C136.388 149.814 134.094 149.474 131.846 149.627H128.263V163.431H128.248L128.238 163.426Z" fill="#010101"/>
<path d="M199.645 160.853H179.497L175.086 171.364H164.525L186.018 121.313H193.646L214.53 171.364H204.06L199.65 160.853H199.645ZM196.803 152.895L189.693 134.889L182.587 152.895H196.803Z" fill="#010101"/>
<path d="M229.263 171.364V121.328H236.003L266.403 154.707V121.328H276.132V171.379H269.393L239.013 137.908V171.379H229.263V171.364Z" fill="#010101"/>
<path d="M32.7693 210.056H15.9858V221.237H31.7187V229.631H15.9858V251.672H6.25171V201.637H32.7693V210.056Z" fill="#010101"/>
<path d="M99.5428 226.728C99.8372 241.477 88.1289 253.672 73.411 253.966C58.6931 254.261 46.5229 242.532 46.2234 227.784C45.9291 213.035 57.6374 200.84 72.3553 200.546H72.8933C86.8347 199.784 98.7663 210.483 99.5225 224.449C99.5581 225.211 99.5581 225.967 99.5428 226.728ZM89.4941 226.728C89.1794 217.532 81.4601 210.335 72.2792 210.645C63.1034 210.96 55.917 218.694 56.2367 227.895C56.5514 236.868 63.9001 243.974 72.8527 243.974C81.8661 244.161 89.3114 236.995 89.5093 227.967C89.5093 227.56 89.5093 227.154 89.4941 226.728Z" fill="#010101"/>
<path d="M130.4 201.657C134.962 201.266 139.499 202.601 143.138 205.413C146.407 208.224 148.234 212.371 148.092 216.685C148.427 223.551 143.549 229.56 136.789 230.636L152.355 251.733H140.22L126.888 231.616H125.69V251.733H115.956V201.677H130.4V201.662V201.657ZM125.69 224.693H128.461C130.324 224.693 138.043 224.475 138.043 217.126C138.043 209.777 130.415 209.615 128.608 209.615H125.695V224.693H125.69Z" fill="#010101"/>
<path d="M176.137 201.657V233.097C175.985 235.777 176.858 238.426 178.537 240.512C182.638 244.902 189.505 245.141 193.88 241.03C194.067 240.862 194.235 240.695 194.397 240.512C196.077 238.421 196.945 235.777 196.798 233.097V201.657H206.532V232.285C206.826 237.041 205.512 241.74 202.781 245.643C194.529 254.672 180.552 255.301 171.539 247.029C171.057 246.582 170.595 246.125 170.158 245.643C167.443 241.735 166.114 237.036 166.408 232.285V201.657H176.137Z" fill="#010101"/>
<path d="M232.11 201.657H239.145L252.401 233.463L266.271 201.657H273.305L281.689 251.708H271.793L267.307 220.882L253.898 251.708H250.614L237.795 220.882L232.699 251.708H222.823L232.11 201.657Z" fill="#010101"/>
<path d="M344.53 205.423C344.91 208.072 345.814 210.802 347.25 213.604C348.976 216.877 351.407 219.994 354.239 222.866C354.33 217.7 354.528 212.416 354.873 207.067C351.138 206.575 347.702 206.032 344.53 205.423Z" fill="#5ECBF1"/>
<path d="M462.116 84.2386C462.654 73.8397 462.009 63.5524 459.329 53.7472C456.863 44.7439 452.63 36.172 446.038 28.2903C442.926 24.5906 439.338 21.109 435.106 17.7848C435.857 17.9472 442.125 19.6626 450.646 24.8037C457.827 29.1429 466.668 35.898 475.296 46.2918C481.564 53.8487 487.73 63.3849 493.033 75.2303C482.421 77.6409 472.134 80.6962 462.111 84.2336" fill="#F89A4B"/>
<path d="M462.116 85.6851C461.811 85.6851 461.507 85.5836 461.253 85.3958C460.867 85.1065 460.654 84.6447 460.674 84.1676C461.258 72.8348 460.365 63.0043 457.934 54.1279C455.406 44.8911 451.032 36.507 444.926 29.2191C441.8 25.499 438.298 22.1291 434.208 18.9267C433.68 18.5106 433.512 17.7848 433.797 17.1809C434.081 16.5668 434.735 16.2268 435.41 16.3841C435.476 16.3942 442.003 17.9066 451.392 23.5756C460.609 29.1481 469.028 36.4867 476.407 45.3834C483.376 53.7726 489.415 63.6235 494.353 74.6517C494.531 75.0425 494.521 75.4993 494.328 75.885C494.135 76.2707 493.775 76.5549 493.358 76.6513C483.33 78.9301 472.982 81.9396 462.598 85.6039C462.446 85.6597 462.278 85.6902 462.116 85.6902M442.013 21.8754C443.835 23.6314 445.535 25.4483 447.144 27.3616C453.513 34.9743 458.081 43.7289 460.725 53.3615C463.08 61.9791 464.034 71.4239 463.659 82.1782C472.875 78.996 482.056 76.3265 490.998 74.2305C486.304 64.0853 480.65 55.0059 474.195 47.2206C467.018 38.5726 458.847 31.4471 449.91 26.0421C446.936 24.2455 444.261 22.8853 442.023 21.8754" fill="#241F20"/>
<path d="M505.077 114.197C508.254 113.882 511.294 113.614 514.237 113.365C514.055 112.847 513.887 112.335 513.608 111.741C511.289 106.803 518.871 103.676 518.871 103.676C512.111 103.849 511.903 98.7027 515.491 95.8962C519.074 93.0947 530.356 87.7202 544.516 88.1312C556.528 88.4814 564.212 93.5312 566.288 95.0689C569.962 93.7951 574.114 91.7194 577.271 88.1972V84.3553C577.271 84.3553 590.715 73.931 596.475 82.9851V120.896C598.743 121.876 600.921 122.86 603.133 123.804C605.148 124.667 607.818 126.048 610.914 127.885C614.888 112.522 620.927 97.0889 630.108 84.6751C578.331 65.8209 533.472 65.9174 493.039 75.2201C494.972 79.5086 496.835 83.9899 498.505 88.9128C501.265 97.0279 503.366 105.478 505.082 114.197" fill="#5ECBF1"/>
<path d="M610.908 129.336C610.65 129.336 610.401 129.265 610.173 129.133C607.219 127.388 604.59 126.002 602.565 125.134C601.387 124.637 600.225 124.119 599.048 123.601L595.901 122.231C595.368 122.003 595.028 121.48 595.028 120.902V83.4318C594.008 81.9854 592.704 81.1378 591.055 80.8485C586.38 80.0365 580.524 83.8226 578.712 85.0964V88.2024C578.712 88.5577 578.575 88.8977 578.341 89.1616C575.535 92.298 571.637 94.7392 566.76 96.4343C566.303 96.5865 565.806 96.5155 565.43 96.2313C563.431 94.7544 556.031 89.9127 544.47 89.5727C529.823 89.2073 519.018 94.9625 516.379 97.0331C515.024 98.0938 514.344 99.5707 514.73 100.642C515.11 101.707 516.597 102.296 518.835 102.24C519.46 102.159 520.14 102.702 520.282 103.382C520.429 104.062 520.069 104.747 519.424 105.016C518.389 105.448 515.542 106.991 514.796 108.934C514.516 109.665 514.552 110.36 514.917 111.137C515.181 111.69 515.349 112.177 515.516 112.665C515.658 113.086 515.643 113.669 515.404 114.045C515.161 114.421 514.801 114.776 514.354 114.811C511.415 115.055 508.386 115.324 505.219 115.644C504.529 115.71 503.803 115.217 503.661 114.487C501.818 105.087 499.682 96.8758 497.139 89.3849C495.683 85.1015 493.962 80.7876 491.724 75.8191C491.541 75.4283 491.551 74.9715 491.744 74.5858C491.937 74.2001 492.292 73.921 492.714 73.8245C538.796 63.2124 583.893 66.3235 630.6 83.3252C631.021 83.4775 631.356 83.8226 631.483 84.2641C631.615 84.6955 631.529 85.1675 631.265 85.538C623.195 96.4444 616.811 110.817 612.304 128.25C612.192 128.687 611.873 129.052 611.457 129.225C611.279 129.301 611.091 129.336 610.903 129.336M597.916 119.958L600.21 120.957C601.377 121.47 602.529 121.983 603.697 122.48C605.443 123.226 607.599 124.322 609.995 125.687C614.354 109.518 620.338 95.9775 627.814 85.3806C582.873 69.3483 539.415 66.359 495.074 76.2403C497.002 80.6303 498.54 84.5483 499.87 88.446C502.341 95.7187 504.422 103.646 506.234 112.629C508.264 112.436 510.248 112.253 512.182 112.086C511.603 110.685 511.573 109.239 512.101 107.879C512.649 106.463 513.709 105.316 514.801 104.433C512.963 103.636 512.263 102.316 512.009 101.601C511.192 99.3525 512.238 96.6018 514.598 94.7544C517.663 92.3589 529.163 86.2434 544.556 86.6849C555.955 87.0097 563.659 91.486 566.506 93.4501C570.378 92.0138 573.51 90.0599 575.819 87.6238V84.3504C575.819 83.9038 576.027 83.4825 576.377 83.2085C576.717 82.9446 584.736 76.7783 591.537 77.9912C594.125 78.4429 596.196 79.8589 597.688 82.2087C597.835 82.432 597.911 82.706 597.911 82.9801V119.947L597.916 119.958Z" fill="#241F20"/>
<path d="M578.407 114.918C572.886 113.685 566.349 112.72 558.097 112.238L557.777 96.967C557.777 96.967 561.634 96.6981 566.298 95.0892C569.942 93.8052 574.124 91.7143 577.286 88.2277L578.412 114.913L578.407 114.918Z" fill="#FDEE14"/>
<path d="M578.407 116.359C578.301 116.359 578.199 116.349 578.093 116.324C572.068 114.979 565.506 114.116 558.01 113.674C557.259 113.629 556.67 113.015 556.655 112.263L556.335 96.9924C556.315 96.2261 556.909 95.5764 557.675 95.5257C557.711 95.5206 561.416 95.2415 565.826 93.724C570.231 92.171 573.728 89.9938 576.215 87.2532C576.606 86.8218 577.23 86.6797 577.773 86.8675C578.321 87.0705 578.702 87.578 578.722 88.1617L579.849 114.847C579.864 115.298 579.676 115.725 579.336 116.014C579.072 116.232 578.742 116.354 578.407 116.354M559.513 110.878C565.872 111.294 571.586 112.035 576.885 113.111L575.976 91.4504C573.479 93.4906 570.399 95.1704 566.775 96.4443C563.618 97.5304 560.827 98.0379 559.244 98.251L559.513 110.878Z" fill="#241F20"/>
<path d="M518.876 103.681C518.876 103.681 511.289 106.813 513.613 111.746C513.892 112.34 514.06 112.847 514.242 113.37C532.853 111.822 546.997 111.599 558.107 112.248L557.792 96.9874C533.508 92.6583 518.881 103.681 518.881 103.681" fill="#20B24B"/>
<path d="M514.237 114.811C513.633 114.811 513.08 114.426 512.877 113.847C512.659 113.213 512.517 112.812 512.309 112.365C511.614 110.893 511.542 109.345 512.106 107.889C513.344 104.697 517.201 102.839 518.155 102.423C519.866 101.19 534.441 91.3642 558.041 95.5613C558.716 95.6831 559.213 96.2667 559.228 96.957L559.543 112.218C559.553 112.619 559.386 113.005 559.102 113.284C558.807 113.563 558.416 113.685 558.016 113.69C546.038 112.984 531.757 113.355 514.349 114.806C514.314 114.811 514.268 114.811 514.232 114.811M546.728 97.434C529.864 97.434 519.861 104.747 519.739 104.834C519.642 104.91 519.536 104.966 519.424 105.016C518.389 105.448 515.542 106.991 514.796 108.934C514.517 109.665 514.557 110.36 514.917 111.137C515.029 111.386 515.131 111.614 515.222 111.837C531.518 110.513 545.099 110.142 556.625 110.721L556.366 98.2054C552.945 97.6573 549.728 97.4289 546.723 97.4289" fill="#241F20"/>
<path d="M577.265 84.3605V88.2023L578.417 114.903C585.858 116.552 591.395 118.709 596.47 120.901V82.9902C590.709 73.9361 577.265 84.3605 577.265 84.3605Z" fill="#7BC142"/>
<path d="M596.47 122.348C596.277 122.348 596.084 122.312 595.901 122.226C591.029 120.13 585.508 117.963 578.103 116.309C577.469 116.171 577.007 115.618 576.976 114.969L575.819 84.3656C575.819 83.919 576.022 83.4978 576.377 83.2237C576.717 82.9598 584.736 76.7935 591.537 78.0115C594.125 78.4632 596.191 79.8792 597.683 82.2239C597.835 82.4523 597.911 82.7213 597.911 82.9953V120.907C597.911 121.394 597.662 121.851 597.256 122.12C597.018 122.277 596.744 122.358 596.465 122.358M579.818 113.74C585.934 115.177 590.765 116.943 595.034 118.724V83.4318C594.008 81.9854 592.709 81.1378 591.06 80.8485C586.386 80.0314 580.529 83.8226 578.717 85.0964V88.2024L579.818 113.735V113.74Z" fill="#241F20"/>
<path d="M596.475 120.901V131.955C597.81 132.183 599.17 132.463 600.591 132.93L603.362 175.637C603.717 172.977 604.011 170.394 604.235 167.928C605.295 156.306 607.229 142.131 610.914 127.885C607.818 126.053 605.148 124.662 603.133 123.804C600.921 122.855 598.743 121.871 596.475 120.896" fill="#00B3E4"/>
<path d="M603.362 177.083H603.311C602.57 177.058 601.971 176.474 601.92 175.733L599.215 134.026C598.139 133.726 597.114 133.533 596.226 133.376C595.536 133.254 595.033 132.65 595.033 131.955V120.901C595.033 120.414 595.282 119.963 595.688 119.694C596.094 119.43 596.607 119.384 597.048 119.577L600.215 120.957C601.382 121.47 602.534 121.982 603.702 122.48C605.838 123.388 608.589 124.84 611.649 126.641C612.203 126.966 612.472 127.621 612.309 128.245C609.234 140.156 607.001 153.55 605.676 168.055C605.453 170.541 605.148 173.145 604.798 175.825C604.702 176.545 604.088 177.078 603.367 177.078M597.916 130.757C598.875 130.95 599.926 131.204 601.032 131.559C601.596 131.742 601.986 132.244 602.022 132.833L603.722 159.006C605.037 148.104 606.884 137.908 609.239 128.585C606.666 127.098 604.372 125.911 602.56 125.134C601.382 124.632 600.22 124.119 599.043 123.601L597.911 123.109V130.757H597.916Z" fill="#241F20"/>
<path d="M411.552 81.361C420.956 75.4942 431.442 68.9066 443.302 62.2633C443.226 50.3164 441.719 40.4808 440.003 33.1016C424.103 46.3121 411.425 60.3094 401.854 69.5055C404.954 72.5912 408.238 76.5396 411.547 81.3661" fill="#CEEBEB"/>
<path d="M411.552 82.8075C411.09 82.8075 410.644 82.5842 410.365 82.1731C407.218 77.5903 404.016 73.6723 400.844 70.5206C400.564 70.2465 400.412 69.871 400.422 69.4853C400.422 69.0945 400.585 68.724 400.864 68.455C403.645 65.7855 406.685 62.71 409.989 59.3655C417.906 51.3569 427.762 41.3893 439.095 31.98C439.481 31.6603 440.003 31.5639 440.475 31.7212C440.952 31.8836 441.313 32.2744 441.424 32.7616C443.566 42.0237 444.688 51.9405 444.754 62.2481C444.759 62.7658 444.475 63.253 444.013 63.5118C432.918 69.7238 422.91 75.9662 414.085 81.4728L412.324 82.5741C412.085 82.7212 411.826 82.7923 411.562 82.7923M403.904 69.5259C406.594 72.3274 409.294 75.6414 411.948 79.4072L412.547 79.0316C421.205 73.6317 430.99 67.5212 441.856 61.4158C441.749 52.4836 440.826 43.8609 439.11 35.7305C428.65 44.6019 419.474 53.8691 412.029 61.4006C409.116 64.3492 406.406 67.0847 403.899 69.5259" fill="#241F20"/>
<path d="M389.663 115.055C388.861 124.058 386.45 132.148 383.771 141.42C381.999 147.581 380.071 154.336 378.305 162.269C377.127 167.735 376.056 173.683 375.143 180.489C368.5 180.539 362.765 180.169 357.943 179.469C358.263 177.647 358.588 175.875 358.908 174.109C359.765 169.663 360.679 165.644 361.531 161.944C363.247 154.763 364.962 148.708 366.678 143.4C369.677 133.97 372.626 126.677 375.036 119.069C379.7 118.049 384.628 116.765 389.668 115.05" fill="#EE3450"/>
<path d="M373.915 181.93C367.941 181.93 362.496 181.585 357.725 180.895C357.339 180.834 356.994 180.626 356.766 180.311C356.538 179.996 356.446 179.601 356.517 179.215L357.481 173.85C358.349 169.369 359.263 165.334 360.126 161.619C361.755 154.788 363.45 148.688 365.302 142.953C366.876 138.01 368.418 133.691 369.911 129.524C371.245 125.789 372.514 122.251 373.656 118.633C373.813 118.141 374.219 117.77 374.722 117.658C379.985 116.506 384.72 115.207 389.196 113.69C389.653 113.522 390.165 113.614 390.551 113.918C390.937 114.218 391.14 114.695 391.099 115.177C390.318 123.987 388.059 131.783 385.451 140.806L385.156 141.821C383.446 147.784 381.507 154.545 379.711 162.584C378.447 168.45 377.417 174.373 376.569 180.682C376.473 181.392 375.869 181.925 375.148 181.93C374.737 181.935 374.326 181.935 373.915 181.935M359.623 178.24C363.881 178.778 368.662 179.047 373.879 179.047C374.701 173.125 375.691 167.522 376.894 161.959C378.711 153.829 380.746 146.729 382.385 141.024L382.674 140.004C385.024 131.894 387.08 124.794 387.993 117.126C384.278 118.308 380.381 119.354 376.153 120.303C375.067 123.672 373.874 127.002 372.626 130.493C371.139 134.64 369.606 138.928 368.048 143.836C366.216 149.5 364.536 155.529 362.932 162.274C362.08 165.943 361.176 169.948 360.324 174.373L359.628 178.23L359.623 178.24Z" fill="#241F20"/>
<path d="M459.329 53.7473C453.701 56.5893 448.398 59.4263 443.307 62.2684C443.251 50.3165 441.698 40.4555 440.039 33.1168C437.897 23.8446 435.375 18.4345 435.106 17.7899C439.338 21.1141 442.932 24.5957 446.038 28.2954C452.63 36.1721 456.863 44.749 459.329 53.7523" fill="#E32139"/>
<path d="M443.307 63.7148C443.053 63.7148 442.805 63.6438 442.576 63.5169C442.135 63.258 441.866 62.7861 441.856 62.2785C441.815 52.4125 440.729 42.7088 438.623 33.4365C437.735 29.5794 436.187 23.8699 433.878 18.5816C433.609 17.9777 433.746 17.1606 434.263 16.7546C434.796 16.3536 435.481 16.2471 435.994 16.6531C440.237 19.9874 443.881 23.4893 447.139 27.3616C453.513 34.9743 458.076 43.7289 460.72 53.3615C460.898 54.0264 460.593 54.7217 459.974 55.0363C454.675 57.716 449.448 60.4972 444.002 63.5321C443.784 63.6539 443.541 63.7199 443.302 63.7199M438.511 22.5504C439.856 26.4075 440.81 30.0514 441.445 32.7971C443.424 41.5162 444.52 50.6007 444.718 59.8374C449.088 57.4318 453.33 55.1784 457.619 53.0012C455.046 44.206 450.788 36.2126 444.936 29.2242C442.967 26.8744 440.841 24.6667 438.516 22.5504" fill="#241F20"/>
<path d="M389.983 111.086C389.927 112.426 389.82 113.766 389.663 115.05C384.629 116.765 379.696 118.049 375.031 119.069C376.96 113.015 378.569 106.742 379.64 99.0276C380.284 94.6884 380.711 89.8619 380.98 84.4518C381.355 76.8442 381.299 67.9982 380.817 57.2288C380.817 57.2288 384.461 67.3587 387.192 81.021C387.993 85.2537 388.745 89.8111 389.282 94.5259C389.871 99.9411 390.191 105.564 389.978 111.086" fill="#E32139"/>
<path d="M375.031 120.516C374.63 120.516 374.245 120.343 373.965 120.044C373.62 119.663 373.499 119.12 373.661 118.633C375.869 111.7 377.274 105.59 378.213 98.8246C378.827 94.6376 379.264 89.9177 379.538 84.3757C379.914 76.834 379.858 67.9779 379.376 57.2897C379.345 56.5791 379.837 55.9448 380.538 55.8077C381.253 55.6808 381.938 56.0716 382.172 56.7365C382.207 56.838 385.887 67.1202 388.607 80.7368C389.546 85.6546 390.231 90.1106 390.718 94.3585C391.388 100.545 391.617 106.031 391.419 111.137C391.368 112.517 391.251 113.903 391.089 115.227C391.018 115.776 390.642 116.232 390.125 116.415C385.537 117.973 380.705 119.303 375.341 120.475C375.239 120.495 375.133 120.506 375.031 120.506M382.613 67.983C382.725 74.134 382.664 79.6 382.421 84.5228C382.141 90.1613 381.695 94.9776 381.071 99.2458C380.218 105.377 378.99 110.985 377.148 117.12C381.132 116.182 384.811 115.146 388.333 113.984C388.435 113.015 388.506 112.03 388.541 111.035C388.734 106.067 388.511 100.718 387.856 94.6883C387.379 90.5217 386.699 86.1367 385.775 81.2951C384.775 76.2808 383.644 71.7234 382.613 67.983Z" fill="#241F20"/>
<path d="M557.787 96.9823C557.787 96.9823 561.654 96.6778 566.288 95.0689C564.212 93.5363 556.533 88.4814 544.521 88.1363C530.356 87.7252 519.084 93.0998 515.496 95.9013C511.913 98.7028 512.111 103.854 518.876 103.676C518.876 103.676 533.502 92.6583 557.787 96.9823Z" fill="#7BC142"/>
<path d="M518.541 105.128C513.796 105.128 512.395 102.687 512.014 101.611C511.197 99.3575 512.243 96.6068 514.598 94.7645C517.668 92.3691 529.168 86.2535 544.561 86.6951C556.955 87.0554 564.984 92.3132 567.151 93.9119C567.582 94.2266 567.8 94.7595 567.719 95.2873C567.633 95.8202 567.268 96.2566 566.765 96.4343C562.01 98.0786 558.066 98.4085 557.909 98.4237C557.792 98.4288 557.66 98.4288 557.538 98.4034C534.238 94.2621 519.891 104.727 519.744 104.834C519.51 105.011 519.216 105.113 518.917 105.123C518.795 105.128 518.673 105.128 518.546 105.128M542.958 89.5575C529.118 89.5575 518.932 95.0386 516.384 97.0382C515.029 98.0989 514.349 99.5758 514.73 100.636C515.09 101.636 516.425 102.215 518.409 102.24C520.987 100.464 535.269 91.5774 557.843 95.5309C558.416 95.47 560.365 95.2365 562.888 94.5869C559.416 92.5873 553.103 89.8264 544.475 89.5777C543.968 89.5625 543.455 89.5575 542.958 89.5575Z" fill="#241F20"/>
<path d="M411.527 81.3459C403.381 86.4362 396.037 90.9937 389.287 94.5311C388.749 89.8163 388.003 85.2588 387.196 81.0261C384.466 67.3588 380.822 57.2339 380.822 57.2339C380.822 57.2339 390.145 57.8784 401.884 69.5056C404.995 72.6166 408.263 76.5245 411.532 81.3509" fill="#F89A4B"/>
<path d="M389.288 95.9775C389.049 95.9775 388.821 95.9166 388.613 95.8049C388.191 95.5816 387.907 95.1654 387.851 94.6884C387.379 90.5115 386.699 86.1317 385.776 81.29C383.101 67.912 379.493 57.8175 379.457 57.716C379.295 57.2542 379.371 56.7467 379.665 56.361C379.959 55.9702 380.437 55.7519 380.914 55.7925C381.315 55.8128 390.912 56.5995 402.889 68.4753C406.289 71.8756 409.598 75.9307 412.714 80.5338C412.933 80.8586 413.009 81.2596 412.928 81.6453C412.846 82.031 412.613 82.366 412.278 82.574C403.65 87.9588 396.525 92.364 389.947 95.81C389.739 95.9166 389.506 95.9775 389.277 95.9775M382.984 59.1472C384.228 62.9688 386.664 71.0027 388.613 80.7419C389.394 84.8629 390.008 88.649 390.465 92.2676C396.119 89.1971 402.265 85.4263 409.476 80.9246C406.716 76.9812 403.818 73.4845 400.854 70.5257C393.053 62.7861 386.334 60.076 382.984 59.1421" fill="#241F20"/>
<path d="M462.116 84.2387C461.471 97.1549 459.06 110.228 456.543 122.713C455.203 129.306 453.813 135.787 452.686 141.953C452.311 144.151 451.828 146.455 451.402 148.866C445.723 149.936 440.364 151.063 435.111 152.24C434.04 144.526 432.807 137.127 431.411 130.321C431.462 130.214 431.462 130.159 431.462 130.052C434.573 116.171 437.516 103.58 439.663 92.968C447.007 89.862 454.508 86.9133 462.116 84.2336" fill="#F48BA2"/>
<path d="M435.106 153.687C434.816 153.687 434.527 153.601 434.284 153.428C433.949 153.2 433.73 152.844 433.675 152.443C432.578 144.511 431.34 137.172 429.995 130.615C429.934 130.311 429.975 129.986 430.102 129.712L432.497 118.932C434.644 109.432 436.679 100.459 438.247 92.6939C438.344 92.2219 438.658 91.8311 439.1 91.6484C446.839 88.3699 454.422 85.4212 461.639 82.8786C462.085 82.7213 462.588 82.7923 462.978 83.0816C463.364 83.3709 463.582 83.8327 463.557 84.3098C462.892 97.698 460.319 111.304 457.959 123.003L456.868 128.337C455.888 133.077 454.929 137.731 454.107 142.217C453.904 143.4 453.671 144.638 453.427 145.907C453.224 146.962 453.016 148.028 452.823 149.129C452.722 149.718 452.26 150.18 451.671 150.292C446.388 151.296 441.069 152.393 435.431 153.662C435.329 153.682 435.223 153.692 435.116 153.692M432.883 130.331C434.126 136.442 435.283 143.212 436.319 150.505C441.089 149.444 445.637 148.505 450.154 147.637C450.296 146.871 450.443 146.11 450.59 145.364C450.829 144.115 451.062 142.897 451.265 141.715C452.092 137.198 453.057 132.518 454.036 127.758L455.127 122.429C457.34 111.467 459.74 98.8247 460.553 86.3297C454.229 88.6033 447.636 91.1815 440.927 94.0084C439.374 101.626 437.395 110.345 435.309 119.567L432.883 130.326V130.331Z" fill="#241F20"/>
<path d="M443.211 68.922C442.972 75.073 441.627 83.2491 439.648 92.9984C447.007 89.862 454.488 86.9133 462.121 84.2235C462.638 73.8347 462.004 63.5474 459.324 53.7574C453.706 56.564 448.387 59.4111 443.307 62.2583C443.317 64.4203 443.297 66.628 443.211 68.922Z" fill="#EE2D60"/>
<path d="M439.648 94.4447C439.323 94.4447 438.998 94.3331 438.74 94.1199C438.323 93.7799 438.131 93.2419 438.237 92.7141C440.47 81.7163 441.566 74.3573 441.775 68.866C441.866 66.5924 441.876 64.405 441.866 62.2683C441.866 61.7405 442.145 61.2635 442.607 61.0046C448.118 57.919 453.371 55.1327 458.685 52.4733C459.076 52.2754 459.527 52.2703 459.923 52.448C460.314 52.6256 460.608 52.9656 460.725 53.3818C463.222 62.512 464.156 72.6318 463.572 84.3046C463.547 84.8882 463.166 85.3957 462.613 85.5886C455.437 88.1109 448.113 90.9733 440.216 94.328C440.039 94.4092 439.846 94.4447 439.653 94.4447M444.652 68.9777C444.454 74.1695 443.505 80.9144 441.597 90.613C448.266 87.8217 454.554 85.3754 460.73 83.1931C461.172 72.9617 460.4 63.9888 458.385 55.8585C453.884 58.1372 449.402 60.5174 444.759 63.1108C444.759 65.0191 444.738 66.9679 444.657 68.9828" fill="#241F20"/>
<path d="M422.306 100.789C418.784 93.0187 415.15 86.6037 411.557 81.3611C403.401 86.4464 396.032 90.9937 389.277 94.526C389.871 99.9513 390.181 105.559 389.968 111.081C389.912 112.441 389.8 113.766 389.678 115.08C396.24 112.913 403.082 110.193 410.177 106.666C414.186 104.671 418.231 102.712 422.311 100.789" fill="#F48BA2"/>
<path d="M389.678 116.527C389.358 116.527 389.034 116.415 388.78 116.212C388.399 115.907 388.196 115.435 388.242 114.948C388.359 113.664 388.465 112.365 388.521 111.03C388.714 106.077 388.486 100.581 387.836 94.6883C387.77 94.0996 388.08 93.5261 388.602 93.252C395.271 89.7705 402.6 85.2485 410.796 80.1379C411.456 79.742 412.308 79.9146 412.745 80.5439C416.592 86.1367 420.246 92.7496 423.621 100.195C423.946 100.91 423.631 101.758 422.92 102.098C418.855 104.016 414.815 105.97 410.816 107.96C404.092 111.304 397.321 114.08 390.13 116.456C389.983 116.506 389.83 116.532 389.678 116.532M390.81 95.3481C391.399 101.078 391.597 106.255 391.404 111.142C391.378 111.771 391.343 112.395 391.297 113.015C397.595 110.842 403.579 108.335 409.532 105.377C413.13 103.59 416.744 101.824 420.398 100.093C417.49 93.8306 414.379 88.1972 411.131 83.32C403.716 87.9434 397.002 92.0594 390.805 95.3531" fill="#241F20"/>
<path d="M521.277 228.718C519.399 226.52 517.526 224.485 515.597 222.501C501.184 207.498 486.608 198.921 480.604 196.673C469.297 192.441 457.776 189.974 443.089 190.405C441.962 190.405 440.678 190.568 439.501 190.619C438.856 183.919 438.161 177.327 437.41 170.79C440.785 170.095 444.053 169.45 447.484 168.968C456.97 167.466 467.1 166.877 480.117 168.273C488.745 169.13 500.59 171.866 513.288 177.814C513.877 183.117 514.522 188.533 515.217 193.943C516.77 205.463 518.648 217.096 521.271 228.723" fill="#6FCACA"/>
<path d="M521.277 230.159C520.865 230.159 520.459 229.982 520.18 229.657C518.439 227.611 516.607 225.602 514.562 223.511C500.722 209.102 486.37 200.378 480.097 198.023C467.663 193.364 456.269 191.461 443.13 191.837C442.455 191.842 441.764 191.898 441.069 191.948C440.562 191.989 440.049 192.03 439.557 192.05C438.755 192.03 438.125 191.507 438.054 190.746C437.41 184.057 436.72 177.479 435.969 170.948C435.882 170.207 436.375 169.521 437.11 169.369C440.795 168.603 443.936 168.004 447.276 167.532C458.304 165.796 468.485 165.568 480.264 166.832C486.415 167.441 498.981 169.511 513.897 176.5C514.354 176.713 514.664 177.149 514.719 177.647C515.308 182.94 515.948 188.35 516.643 193.75C518.455 207.179 520.373 218.192 522.677 228.398C522.819 229.043 522.51 229.707 521.916 230.002C521.708 230.108 521.49 230.159 521.266 230.159M446.398 188.908C458.522 188.908 469.368 190.923 481.112 195.323C487.628 197.759 502.468 206.753 516.638 221.501C517.348 222.237 518.044 222.958 518.714 223.678C516.892 214.883 515.303 205.342 513.796 194.136C513.136 188.979 512.522 183.828 511.953 178.778C497.758 172.252 485.867 170.288 479.985 169.709C468.46 168.476 458.507 168.689 447.712 170.389C444.825 170.8 442.084 171.308 438.998 171.937C439.643 177.596 440.242 183.295 440.805 189.081C440.82 189.081 440.836 189.081 440.856 189.076C441.622 189.015 442.389 188.959 443.094 188.959C444.211 188.929 445.307 188.908 446.403 188.908" fill="#241F20"/>
<path d="M667.618 112.304C670.44 128.529 681.539 160.939 684.412 208.25C684.939 205.824 685.219 203.327 685.219 200.83V198.856L685.264 183.047L685.295 167.659H685.31L685.356 143.054H685.371L685.447 113.177C678.179 107.737 671.663 103.636 666.527 100.728C666.644 104.646 666.958 108.554 667.608 112.299" fill="#0E5CAB"/>
<path d="M684.412 209.696C684.371 209.696 684.336 209.691 684.305 209.691C683.579 209.64 683.011 209.057 682.97 208.336C680.869 173.764 674.282 146.846 669.922 129.042C668.329 122.541 666.953 116.928 666.197 112.558C665.583 109.041 665.223 105.189 665.091 100.784C665.075 100.261 665.344 99.7687 665.786 99.5048C666.238 99.2358 666.786 99.2256 667.243 99.4845C673.546 103.052 679.966 107.275 686.315 112.035C686.68 112.304 686.893 112.731 686.893 113.187L686.817 143.07C686.817 143.151 686.812 143.222 686.797 143.298L686.756 167.669C686.756 167.745 686.751 167.816 686.741 167.882L686.665 200.83C686.665 203.393 686.376 205.996 685.818 208.559C685.675 209.229 685.082 209.701 684.407 209.701M669.034 112.056C669.78 116.334 671.145 121.901 672.724 128.352C676.119 142.232 680.869 161.609 683.818 185.848L683.853 167.659C683.859 167.583 683.864 167.517 683.874 167.446L683.914 143.055C683.914 142.978 683.919 142.902 683.935 142.826L684.006 113.903C678.702 109.96 673.358 106.402 668.08 103.296C668.258 106.493 668.572 109.376 669.034 112.05" fill="#241F20"/>
<path d="M514.846 145.333C514.846 154.981 514.953 166.395 515.06 178.667C514.471 178.347 513.882 178.078 513.293 177.809C512.06 166.608 510.934 155.57 509.7 144.795C508.467 134.29 507.021 124.109 505.092 114.197C508.254 113.878 511.309 113.609 514.258 113.395C515.115 115.862 515.06 117.577 515.06 117.577C514.846 122.079 514.791 132.102 514.846 145.338" fill="#1DC4F4"/>
<path d="M515.059 180.108C514.826 180.108 514.587 180.042 514.369 179.925C513.811 179.626 513.253 179.372 512.7 179.118C512.233 178.91 511.918 178.469 511.857 177.966C511.37 173.51 510.893 169.07 510.426 164.669C509.715 158.016 509.01 151.439 508.264 144.958C506.878 133.107 505.417 123.419 503.676 114.471C503.595 114.07 503.686 113.664 503.93 113.334C504.178 113.01 504.539 112.796 504.945 112.756C508.127 112.436 511.192 112.167 514.151 111.954C514.816 111.893 515.405 112.304 515.618 112.918C516.552 115.603 516.506 117.532 516.501 117.613C516.298 121.835 516.227 131.148 516.288 145.323H516.293C516.293 154.24 516.384 164.659 516.48 175.87L516.501 178.651C516.506 179.159 516.237 179.636 515.805 179.9C515.577 180.032 515.318 180.108 515.059 180.108ZM506.807 115.476C508.431 124.068 509.817 133.386 511.136 144.628C511.877 151.119 512.578 157.701 513.293 164.365C513.369 165.045 513.435 165.725 513.512 166.41C513.446 158.787 513.4 151.682 513.4 145.333C513.344 131.113 513.415 121.749 513.618 117.496C513.618 117.496 513.628 116.471 513.212 114.913C511.131 115.075 508.995 115.258 506.807 115.471" fill="#241F20"/>
<path d="M424.047 104.625C423.473 103.265 422.885 102.073 422.306 100.789C418.221 102.717 414.181 104.681 410.172 106.666C403.071 110.193 396.235 112.918 389.673 115.08C388.831 124.053 386.471 132.133 383.766 141.41C402.853 138.522 417.353 134.371 431.381 130.098C429.371 120.287 426.985 111.599 424.042 104.625" fill="#EE3450"/>
<path d="M383.771 142.851C383.36 142.851 382.964 142.674 382.685 142.359C382.365 141.989 382.248 141.476 382.385 141.004C385.1 131.691 387.415 123.749 388.237 114.948C388.293 114.375 388.678 113.893 389.221 113.71C396.286 111.381 402.929 108.655 409.532 105.372C413.552 103.377 417.596 101.413 421.692 99.4844C422.042 99.322 422.438 99.3068 422.804 99.4336C423.169 99.5656 423.463 99.8396 423.621 100.19L424.225 101.499C424.61 102.332 424.996 103.159 425.382 104.062C428.193 110.721 430.624 119.14 432.796 129.808C432.949 130.539 432.517 131.26 431.807 131.478C418.19 135.619 403.28 139.918 383.989 142.841C383.918 142.846 383.847 142.857 383.776 142.857M391.018 116.156C390.17 124.18 388.161 131.468 385.791 139.634C403.229 136.853 416.586 133.077 429.701 129.098C427.63 119.232 425.341 111.396 422.717 105.189C422.347 104.321 421.971 103.524 421.601 102.717C417.972 104.438 414.379 106.189 410.806 107.965C404.36 111.172 397.874 113.857 391.008 116.161" fill="#241F20"/>
<path d="M437.41 170.785C432.639 171.805 427.762 172.982 422.514 174.16C413.724 176.088 403.919 178.073 391.647 179.463C385.593 180.159 380.127 180.428 375.143 180.484C376.052 173.678 377.127 167.73 378.305 162.264C380.076 154.331 382.005 147.581 383.771 141.42C402.848 138.527 417.373 134.345 431.411 130.113V130.326C432.802 137.132 434.035 144.526 435.111 152.245C435.969 158.249 436.72 164.461 437.415 170.79" fill="#EE3450"/>
<path d="M375.138 181.93C374.727 181.93 374.336 181.752 374.062 181.443C373.783 181.128 373.656 180.707 373.707 180.296C374.564 173.911 375.61 167.917 376.889 161.964C378.706 153.834 380.741 146.729 382.38 141.024C382.537 140.476 382.989 140.075 383.547 139.994C402.3 137.147 416.688 133.036 430.99 128.732C431.426 128.6 431.898 128.682 432.264 128.951C432.629 129.225 432.847 129.651 432.847 130.108C434.172 136.65 435.42 144.059 436.527 152.048C437.298 157.453 438.054 163.538 438.836 170.628C438.917 171.369 438.43 172.044 437.699 172.196C434.776 172.825 431.797 173.51 428.721 174.216L422.819 175.566C413.937 177.515 404.041 179.509 391.795 180.9C386.339 181.534 380.888 181.864 375.138 181.93ZM384.903 142.709C383.253 148.454 381.416 154.945 379.711 162.578C378.559 167.933 377.599 173.322 376.797 179.017C381.837 178.915 386.653 178.596 391.48 178.037C403.594 176.662 413.404 174.688 422.205 172.754L428.082 171.409C430.731 170.805 433.294 170.211 435.831 169.658C435.101 163.147 434.395 157.508 433.68 152.459C432.649 145.059 431.502 138.177 430.264 131.97C416.602 136.071 402.711 139.953 384.903 142.714" fill="#241F20"/>
<path d="M435.101 152.23C435.943 158.239 436.709 164.446 437.42 170.805C440.764 170.095 444.073 169.46 447.459 168.943C448.885 161.792 450.219 155.006 451.382 148.881C445.738 149.921 440.379 151.058 435.101 152.235" fill="#EE2D60"/>
<path d="M437.425 172.247C437.126 172.247 436.826 172.155 436.578 171.973C436.253 171.734 436.035 171.369 435.989 170.968C435.248 164.37 434.466 158.138 433.675 152.433C433.568 151.687 434.05 150.992 434.791 150.825C441.003 149.439 446.195 148.363 451.123 147.46C451.585 147.368 452.077 147.526 452.407 147.861C452.742 148.201 452.889 148.683 452.798 149.15C451.636 155.28 450.301 162.071 448.87 169.222C448.753 169.816 448.276 170.278 447.677 170.369C444.612 170.846 441.353 171.445 437.72 172.216C437.623 172.237 437.522 172.247 437.425 172.247ZM436.715 153.352C437.39 158.255 438.049 163.528 438.684 169.07C441.374 168.516 443.866 168.055 446.241 167.669C447.433 161.685 448.56 155.961 449.575 150.682C445.647 151.434 441.485 152.296 436.72 153.352" fill="#241F20"/>
<path d="M509.665 144.831C502.859 144.242 495.302 144.08 486.887 144.618C472.956 145.419 461.649 146.978 451.356 148.906C451.839 146.44 452.265 144.135 452.696 141.938C453.823 135.777 455.163 129.347 456.503 122.698C459.076 110.213 461.486 97.1346 462.131 84.2235C472.154 80.6861 482.442 77.6867 493.054 75.2202C494.982 79.5087 496.804 84.0104 498.52 88.9383C501.25 97.0281 503.341 105.498 505.056 114.177C507.041 124.094 508.431 134.325 509.665 144.831Z" fill="#EE3450"/>
<path d="M451.356 150.347C450.976 150.347 450.605 150.195 450.331 149.916C450.001 149.571 449.849 149.089 449.94 148.627L451.28 141.659C452.163 136.832 453.178 131.818 454.229 126.662L455.087 122.409C457.619 110.122 460.055 96.9823 460.695 84.1473C460.72 83.5636 461.101 83.0561 461.654 82.8582C471.713 79.3056 482.168 76.2605 492.729 73.8092C493.404 73.6468 494.084 73.9919 494.368 74.6213C496.439 79.2193 498.241 83.7413 499.885 88.4561C502.428 95.9876 504.579 104.301 506.477 113.888C508.66 124.799 510.096 136.061 511.101 144.653C511.152 145.084 511.004 145.516 510.705 145.825C510.411 146.135 509.995 146.313 509.543 146.257C502.27 145.627 494.678 145.556 486.989 146.049C474.565 146.764 463.334 148.119 451.63 150.312C451.544 150.327 451.453 150.337 451.362 150.337M463.522 85.2638C462.801 97.9821 460.41 110.893 457.914 122.992L457.051 127.24C456.01 132.371 455 137.37 454.117 142.197L453.168 147.104C464.257 145.105 475.007 143.856 486.801 143.176C494.013 142.714 501.144 142.74 508.025 143.247C507.036 134.97 505.655 124.556 503.635 114.461C501.768 104.991 499.646 96.7996 497.144 89.4001C495.673 85.1572 494.048 81.0464 492.216 76.9C482.472 79.2092 472.834 82.0208 463.522 85.2689" fill="#241F20"/>
<path d="M486.882 144.597C472.971 145.425 461.674 146.983 451.387 148.881C450.22 155.006 448.89 161.797 447.459 168.943C457 167.461 467.094 166.882 480.102 168.247C488.75 169.151 500.58 171.861 513.293 177.799C512.04 166.603 510.964 155.575 509.69 144.81C502.849 144.257 495.287 144.105 486.882 144.602" fill="#E32139"/>
<path d="M513.288 179.24C513.085 179.24 512.877 179.194 512.679 179.108C498.296 172.384 485.999 170.318 479.95 169.689C468.434 168.481 458.477 168.699 447.677 170.369C447.205 170.44 446.738 170.282 446.413 169.937C446.088 169.597 445.946 169.125 446.038 168.658C447.469 161.513 448.804 154.732 449.966 148.612C450.078 148.028 450.534 147.571 451.123 147.465C463.08 145.262 474.413 143.897 486.791 143.156C494.688 142.694 502.214 142.76 509.802 143.364C510.487 143.425 511.04 143.953 511.121 144.633C511.867 150.956 512.547 157.371 513.238 163.862C513.715 168.415 514.207 173.013 514.72 177.641C514.78 178.159 514.552 178.672 514.126 178.976C513.877 179.154 513.578 179.245 513.283 179.245M466.013 166.03C470.601 166.03 475.281 166.293 480.244 166.811C486.147 167.425 497.814 169.369 511.573 175.434C511.162 171.658 510.766 167.892 510.365 164.157C509.721 158.092 509.086 152.078 508.391 146.15C501.331 145.638 494.307 145.592 486.969 146.039C475.037 146.739 464.095 148.043 452.61 150.119C451.605 155.407 450.473 161.168 449.266 167.212C454.929 166.42 460.395 166.03 466.008 166.03" fill="#241F20"/>
<path d="M439.501 190.613C433.39 190.989 426.691 191.847 419.297 193.237C417.368 193.613 415.49 193.882 413.455 194.364C400.808 197.099 386.288 197.257 373.641 196.242C367.048 195.704 360.994 194.851 356.01 193.831C353.223 193.293 350.757 192.704 348.722 192.116C347.22 191.684 345.773 191.207 344.383 190.72L344.438 179.788V176.357C347.763 177.484 352.264 178.662 357.943 179.463C362.765 180.159 368.5 180.534 375.143 180.484C380.127 180.433 385.593 180.164 391.647 179.463C403.919 178.073 413.724 176.088 422.514 174.16C427.767 172.982 432.644 171.8 437.415 170.785C438.166 177.322 438.861 183.914 439.506 190.613" fill="#2ABBAD"/>
<path d="M387.77 198.267C382.492 198.267 377.62 198.008 373.519 197.683C367.134 197.165 360.978 196.318 355.715 195.247C352.99 194.724 350.498 194.131 348.316 193.506C346.793 193.065 345.322 192.578 343.906 192.085C343.322 191.882 342.931 191.334 342.931 190.715L342.992 179.783V176.363C342.987 175.896 343.21 175.464 343.591 175.19C343.966 174.916 344.444 174.845 344.895 174.997C348.839 176.332 353.29 177.357 358.136 178.042C363.095 178.763 368.779 179.068 375.128 179.047C380.771 178.981 386.126 178.651 391.475 178.032C403.589 176.662 413.404 174.683 422.2 172.754L428.082 171.409C431.167 170.699 434.157 170.003 437.105 169.379C437.501 169.283 437.912 169.379 438.247 169.613C438.582 169.856 438.795 170.217 438.836 170.617C439.592 177.164 440.287 183.767 440.932 190.471C440.968 190.862 440.846 191.248 440.592 191.547C440.333 191.842 439.968 192.024 439.587 192.045C433.461 192.425 426.722 193.303 419.561 194.653L417.576 195.019C416.338 195.232 415.095 195.455 413.78 195.765C405.056 197.653 395.926 198.262 387.76 198.262M345.829 189.695C346.895 190.055 347.991 190.405 349.118 190.73C351.188 191.329 353.665 191.918 356.284 192.415C361.45 193.476 367.49 194.298 373.763 194.811C384.009 195.638 399.164 195.983 413.156 192.963C414.496 192.649 415.79 192.415 417.084 192.187L419.028 191.832C425.737 190.568 432.081 189.71 437.922 189.279C437.374 183.635 436.786 178.068 436.161 172.536C433.735 173.069 431.269 173.637 428.742 174.226L422.834 175.576C413.953 177.525 404.056 179.514 391.81 180.905C386.354 181.539 380.908 181.874 375.158 181.935C368.642 182.011 362.821 181.641 357.73 180.9C353.477 180.301 349.493 179.443 345.875 178.342L345.824 189.695H345.829Z" fill="#241F20"/>
<path d="M443.307 62.2684C443.307 64.4101 443.307 66.6076 443.201 68.9117C442.987 75.073 441.648 83.2744 439.663 92.973C437.522 103.585 434.573 116.176 431.462 130.057C431.462 130.057 431.411 130.057 431.411 130.108C429.376 120.303 427.016 111.568 424.067 104.6C423.479 103.26 422.89 102.083 422.301 100.794C418.764 93.0237 415.176 86.5935 411.532 81.3407C420.961 75.4993 431.467 68.9067 443.312 62.2633" fill="#00B3E4"/>
<path d="M431.406 131.559C430.731 131.559 430.137 131.082 429.99 130.407C427.772 119.724 425.397 111.467 422.733 105.168C422.398 104.407 422.053 103.671 421.707 102.946L420.982 101.408C417.561 93.9017 413.983 87.4309 410.334 82.173C410.111 81.8482 410.024 81.4422 410.106 81.0565C410.192 80.6657 410.425 80.3257 410.765 80.1176L413.562 78.3819C422.154 73.0632 431.883 67.0238 442.592 61.0148C443.038 60.756 443.586 60.7661 444.033 61.025C444.469 61.2838 444.743 61.7609 444.743 62.2684C444.743 64.4354 444.738 66.6584 444.632 68.9828C444.439 74.606 443.302 82.3253 441.069 93.2622C439.491 101.058 437.456 110.046 435.304 119.562L432.868 130.372C432.797 130.671 432.644 130.935 432.426 131.128C432.203 131.356 431.893 131.508 431.548 131.544C431.497 131.549 431.452 131.554 431.401 131.554M413.567 81.7772C417.018 86.9386 420.388 93.1252 423.616 100.2L424.316 101.707C424.676 102.458 425.027 103.215 425.387 104.016C427.584 109.213 429.579 115.649 431.442 123.581L432.492 118.927C434.639 109.427 436.674 100.449 438.242 92.6837C440.45 81.899 441.566 74.332 441.749 68.8559C441.815 67.4399 441.84 66.0747 441.851 64.7349C432.035 70.3074 423.062 75.8748 415.084 80.8281L413.562 81.7721L413.567 81.7772Z" fill="#241F20"/>
<path d="M354.244 224.312C353.863 224.312 353.493 224.16 353.213 223.876C350.102 220.724 347.671 217.491 345.971 214.274C344.459 211.335 343.495 208.432 343.099 205.631C343.033 205.164 343.195 204.702 343.535 204.382C343.875 204.058 344.352 203.931 344.799 204.007C347.895 204.601 351.254 205.139 355.056 205.641C355.812 205.742 356.36 206.407 356.309 207.164C355.984 212.264 355.771 217.562 355.68 222.891C355.67 223.475 355.309 223.988 354.777 224.206C354.599 224.282 354.416 224.312 354.239 224.312M346.352 207.23C346.814 209.097 347.539 211.016 348.539 212.949C349.635 215.04 351.097 217.151 352.878 219.253C352.98 215.558 353.142 211.904 353.35 208.331C350.848 207.981 348.534 207.62 346.352 207.235" fill="#241F20"/>
<path d="M373.123 208.93C366.287 208.392 360.253 207.783 354.878 207.072C354.538 212.421 354.335 217.705 354.244 222.871C359.578 228.276 366.454 232.732 373.651 235.194C373.169 226.454 372.956 217.608 373.123 208.935" fill="#E32139"/>
<path d="M373.651 236.64C373.489 236.64 373.336 236.615 373.179 236.559C365.906 234.067 358.816 229.565 353.219 223.881C352.944 223.607 352.797 223.231 352.802 222.846C352.899 217.466 353.107 212.127 353.442 206.986C353.462 206.585 353.655 206.215 353.959 205.961C354.264 205.702 354.665 205.58 355.061 205.646C360.329 206.341 366.277 206.95 373.235 207.493C374.001 207.549 374.58 208.194 374.57 208.96C374.407 217.101 374.585 225.901 375.097 235.117C375.123 235.594 374.905 236.056 374.524 236.346C374.27 236.538 373.966 236.64 373.656 236.64M355.695 222.282C360.39 226.926 366.13 230.702 372.088 233.082C371.692 225.094 371.545 217.436 371.651 210.264C365.871 209.792 360.796 209.285 356.213 208.706C355.954 213.132 355.776 217.694 355.695 222.287" fill="#241F20"/>
<path d="M445.718 250.368L431.142 247.369L414.262 243.887L378.68 236.599C376.965 236.224 375.305 235.742 373.641 235.204C373.159 226.469 372.946 217.628 373.103 208.945C381.786 209.589 391.698 210.178 403.275 210.716C407.72 210.929 412.278 211.305 416.886 211.843C423.798 212.7 430.873 214.04 437.786 216.025C439.232 216.4 440.678 216.827 442.074 217.309C443.201 228.723 444.378 239.868 445.718 250.373" fill="#F48BA2"/>
<path d="M445.718 251.81C445.622 251.81 445.525 251.799 445.429 251.779L378.386 238.005C376.823 237.665 375.184 237.214 373.199 236.574C372.631 236.391 372.235 235.879 372.199 235.28C371.692 226.048 371.514 217.172 371.662 208.915C371.667 208.519 371.839 208.143 372.128 207.874C372.423 207.605 372.809 207.478 373.209 207.504C382.258 208.174 392.109 208.752 403.335 209.265C407.807 209.478 412.42 209.864 417.048 210.402C424.534 211.33 431.639 212.756 438.181 214.629C439.628 215.005 441.115 215.441 442.541 215.939C443.079 216.121 443.449 216.598 443.505 217.162C444.85 230.793 445.977 240.984 447.144 250.186C447.21 250.647 447.037 251.109 446.697 251.429C446.423 251.678 446.073 251.81 445.713 251.81M375.026 234.128C376.503 234.585 377.782 234.92 378.985 235.183L444.033 248.546C442.972 240.045 441.937 230.606 440.729 218.375C439.648 218.019 438.537 217.7 437.425 217.41C430.995 215.568 424.037 214.172 416.708 213.264C412.156 212.736 407.604 212.366 403.204 212.147C392.581 211.66 383.177 211.117 374.524 210.493C374.422 217.943 374.595 225.881 375.026 234.128Z" fill="#241F20"/>
<path d="M366.673 143.405C364.957 148.708 363.242 154.763 361.526 161.949C360.669 165.649 359.76 169.663 358.903 174.114C358.583 175.885 358.258 177.652 357.938 179.474C352.259 178.672 347.758 177.489 344.433 176.368L344.489 164.416V158.787L344.545 157.447V157.392L344.596 141.902C350.975 143.029 358.583 143.78 366.673 143.405Z" fill="#0E5CAB"/>
<path d="M357.938 180.91C357.872 180.91 357.806 180.905 357.735 180.895C352.716 180.189 348.082 179.113 343.971 177.728C343.383 177.53 342.987 176.977 342.992 176.347L343.154 141.897C343.154 141.466 343.342 141.065 343.667 140.796C343.992 140.522 344.423 140.4 344.844 140.481C352.254 141.796 359.578 142.293 366.607 141.963C367.16 142.004 367.54 142.156 367.82 142.532C368.109 142.907 368.195 143.4 368.048 143.851C366.216 149.515 364.536 155.544 362.932 162.284C362.08 165.954 361.176 169.963 360.324 174.388L359.359 179.722C359.238 180.423 358.628 180.915 357.938 180.915M345.88 175.317C349.194 176.373 352.843 177.215 356.766 177.834L357.481 173.845C358.349 169.364 359.263 165.329 360.126 161.614C361.572 155.56 363.069 150.079 364.683 144.912C358.634 145.044 352.361 144.618 346.032 143.603L345.93 158.833V164.406L345.88 175.312V175.317Z" fill="#241F20"/>
<path d="M442.069 217.288C443.19 228.712 444.363 239.888 445.723 250.353L464.582 254.22L494.876 294.065L496.383 292.715C495.363 247.648 470.642 226.591 442.069 217.288Z" fill="#2ABBAD"/>
<path d="M494.876 295.512C494.83 295.512 494.784 295.507 494.744 295.502C494.343 295.471 493.972 295.258 493.729 294.938L463.765 255.53L445.439 251.769C444.835 251.647 444.378 251.155 444.297 250.541C442.805 239.147 441.551 226.86 440.633 217.431C440.587 216.949 440.785 216.471 441.171 216.167C441.546 215.862 442.054 215.766 442.521 215.918C478.336 227.581 496.941 253.403 497.824 292.685C497.835 293.101 497.657 293.512 497.347 293.786L495.84 295.141C495.576 295.38 495.236 295.512 494.876 295.512ZM447.027 249.15L464.877 252.815C465.222 252.886 465.526 253.073 465.734 253.353L494.911 291.731C493.785 255.154 476.57 230.829 443.723 219.369C444.591 228.149 445.713 238.97 447.022 249.15" fill="#241F20"/>
<path d="M628.134 249.404C628.078 249.566 628.078 249.724 628.027 249.886L583.386 264.411C583.117 264.462 582.848 264.573 582.584 264.68C585.584 254.499 593.785 226.043 599.358 198.977C601.342 201.601 603.377 204.443 605.412 207.443C613.289 218.912 621.115 232.788 628.134 249.404Z" fill="#F48BA2"/>
<path d="M582.594 266.111C582.239 266.111 581.889 265.984 581.62 265.736C581.214 265.365 581.041 264.797 581.204 264.269C585.218 250.642 592.735 223.993 597.952 198.688C598.063 198.13 598.495 197.698 599.043 197.566C599.601 197.44 600.175 197.658 600.51 198.11C602.585 200.86 604.636 203.728 606.61 206.636C615.273 219.253 622.967 233.453 629.463 248.841C629.59 249.155 629.616 249.505 629.514 249.825C629.499 249.916 629.413 250.302 629.392 250.358C629.25 250.779 628.91 251.119 628.474 251.256L583.838 265.776C583.493 265.857 583.32 265.939 583.138 266.005C582.96 266.076 582.777 266.106 582.6 266.106M600.114 202.413C595.252 225.312 588.72 248.805 584.741 262.457L626.357 248.907C620.029 234.097 612.583 220.43 604.225 208.255C602.885 206.28 601.51 204.321 600.114 202.413Z" fill="#241F20"/>
<path d="M667.618 112.304C666.963 108.559 666.654 104.651 666.537 100.733C659.285 96.6271 654.763 94.8458 654.763 94.8458C649.86 92.5721 645.039 90.5268 640.253 88.5881C634.442 104.346 633.391 124.419 633.863 144.75C650.464 159.097 669.653 180.6 684.021 209.711C684.148 209.224 684.305 208.747 684.412 208.255C681.539 160.944 670.44 128.535 667.618 112.309" fill="#F89A4B"/>
<path d="M684.021 211.148C683.473 211.148 682.97 210.838 682.727 210.346C667.44 179.392 647.206 158.183 632.914 145.836C632.61 145.567 632.427 145.186 632.417 144.78C632.052 128.976 632.326 105.899 638.903 88.0806C639.035 87.7152 639.314 87.4208 639.669 87.2584C640.03 87.1062 640.441 87.096 640.796 87.2432C646.277 89.4661 650.911 91.4606 655.377 93.5313C655.488 93.5719 659.99 95.3685 667.253 99.4793C667.694 99.728 667.973 100.185 667.983 100.692C668.11 104.966 668.455 108.681 669.044 112.05C669.79 116.329 671.15 121.901 672.729 128.347C677.114 146.257 683.742 173.323 685.858 208.158C685.868 208.29 685.858 208.427 685.828 208.554C685.757 208.894 685.66 209.224 685.564 209.554L685.422 210.067C685.269 210.645 684.772 211.071 684.173 211.137C684.122 211.142 684.077 211.142 684.026 211.142M635.289 144.069C648.931 155.94 667.725 175.642 682.676 203.905C680.306 171.45 674.099 146.079 669.922 129.032C668.329 122.531 666.953 116.923 666.197 112.548C665.618 109.254 665.268 105.661 665.121 101.591C658.462 97.8705 654.276 96.2008 654.23 96.1856C650.124 94.2824 645.942 92.4706 641.1 90.4913C635.269 107.417 634.955 128.951 635.284 144.075" fill="#241F20"/>
<path d="M633.858 144.745C634.102 155.123 634.711 165.558 635.3 175.515C636.711 199.099 632.615 227.114 628.118 249.419C628.169 249.541 628.225 249.658 628.281 249.78L653.662 241.527C663.736 238.3 673.236 230.433 679.098 220.491C679.195 220.344 679.337 220.136 679.575 219.74C679.798 219.41 681.006 217.354 681.341 216.644L681.417 216.502L681.895 215.497L681.961 215.512C682.833 213.665 683.493 211.706 684.021 209.706C669.648 180.595 650.464 159.092 633.863 144.745" fill="#E32139"/>
<path d="M628.276 251.226C627.712 251.226 627.184 250.891 626.951 250.348C626.834 250.079 626.646 249.419 626.702 249.135C632.529 220.212 635.005 194.79 633.858 175.601C633.325 166.664 632.666 155.539 632.412 144.775C632.402 144.206 632.721 143.684 633.244 143.435C633.752 143.196 634.366 143.273 634.802 143.653C649.287 156.169 669.81 177.682 685.31 209.062C685.467 209.371 685.503 209.732 685.411 210.072C684.813 212.355 684.107 214.335 683.27 216.121C683.199 216.263 683.117 216.385 683.021 216.492L682.722 217.121C682.27 218.055 681.021 220.171 680.778 220.542C680.605 220.826 680.468 221.039 680.367 221.191C674.302 231.473 664.487 239.578 654.098 242.908L628.727 251.16C628.58 251.211 628.428 251.231 628.276 251.231M635.391 148.013C635.685 157.671 636.269 167.43 636.746 175.429C637.893 194.694 635.604 219.014 629.93 247.724L653.215 240.152C662.959 237.031 672.165 229.408 677.86 219.75L678.347 218.994C678.57 218.643 679.737 216.664 680.032 216.025L680.595 214.873C680.656 214.746 680.737 214.624 680.824 214.522C681.458 213.127 681.996 211.589 682.478 209.853C668.09 180.905 649.388 160.528 635.386 148.008" fill="#241F20"/>
<path d="M559.107 160.553L560.294 217.806C567.608 228.271 574.104 240.868 579.219 255.92C577.357 240.304 575.87 198.561 575.301 172.825C567.76 166.151 561.898 162.264 559.102 160.553" fill="#7BC142"/>
<path d="M579.23 257.367C578.621 257.367 578.062 256.981 577.864 256.387C573.063 242.263 566.755 229.56 559.117 218.633C558.949 218.405 558.858 218.126 558.853 217.837L557.665 160.589C557.655 160.061 557.934 159.569 558.391 159.31C558.843 159.041 559.411 159.051 559.863 159.325C562.72 161.071 568.653 165.01 576.266 171.754C576.565 172.023 576.743 172.399 576.748 172.8C577.296 197.551 578.788 240.066 580.661 255.763C580.747 256.499 580.265 257.179 579.544 257.341C579.438 257.367 579.331 257.377 579.23 257.377M561.73 217.344C567.557 225.744 572.617 235.148 576.829 245.415C575.423 225.947 574.337 193.933 573.88 173.495C568.283 168.582 563.664 165.248 560.609 163.228L561.736 217.349L561.73 217.344Z" fill="#241F20"/>
<path d="M575.306 172.83C575.875 198.561 577.367 240.309 579.224 255.925C580.204 258.813 581.158 261.757 582.031 264.832C582.209 264.776 582.396 264.715 582.574 264.655C585.589 254.504 593.79 226.058 599.332 198.962C590.684 187.568 582.29 179.017 575.306 172.83Z" fill="#0C9647"/>
<path d="M582.259 266.137C582.016 266.137 581.787 266.106 581.625 266.02C581.28 265.832 580.752 265.609 580.645 265.228C579.778 262.178 578.839 259.26 577.864 256.398C575.915 240.304 574.413 197.668 573.865 172.866C573.855 172.292 574.18 171.77 574.702 171.526C575.215 171.282 575.834 171.374 576.266 171.754C584.797 179.306 592.942 188.167 600.484 198.089C600.733 198.424 600.834 198.845 600.748 199.257C595.247 226.175 587.172 254.251 583.959 265.071C583.827 265.523 583.477 265.883 583.026 266.03C582.823 266.096 582.533 266.142 582.259 266.142M576.829 176.149C577.428 201.221 578.869 240.751 580.661 255.758C581.193 257.265 581.736 258.884 582.269 260.579C585.918 248.084 592.851 223.287 597.789 199.312C591.212 190.71 584.178 182.94 576.829 176.149Z" fill="#241F20"/>
<path d="M545.5 270.943L533.817 268.476L525.296 266.705L516.399 274.688L496.358 292.695C495.337 247.628 470.637 226.566 442.074 217.294C441.592 212.361 441.11 207.377 440.627 202.342C440.252 198.429 439.876 194.516 439.501 190.608C440.678 190.553 441.967 190.395 443.094 190.395C457.776 189.969 469.297 192.43 480.604 196.668C486.608 198.916 501.184 207.493 515.597 222.496C517.526 224.48 519.404 226.515 521.276 228.713C530.868 239.913 539.765 253.951 545.5 270.943Z" fill="#71C6A4"/>
<path d="M496.358 294.152C496.165 294.152 495.972 294.106 495.784 294.03C495.267 293.812 494.927 293.299 494.916 292.741C494.059 254.794 476.128 229.875 441.627 218.679C441.079 218.502 440.689 218.014 440.638 217.446L438.065 190.761C438.029 190.365 438.156 189.974 438.415 189.675C438.674 189.375 439.049 189.198 439.44 189.182C439.902 189.162 440.379 189.122 440.856 189.086C441.622 189.02 442.389 188.964 443.094 188.964C456.564 188.584 468.313 190.538 481.112 195.328C487.634 197.77 502.473 206.758 516.643 221.506C518.719 223.638 520.597 225.698 522.383 227.789C533.416 240.675 541.658 255.043 546.876 270.491C547.043 270.978 546.926 271.521 546.586 271.912C546.241 272.298 545.724 272.481 545.206 272.369L525.722 268.278L497.332 293.781C497.058 294.025 496.718 294.157 496.368 294.157M443.419 216.228C477.686 227.667 495.926 252.332 497.692 289.564L524.332 265.639C524.672 265.335 525.134 265.193 525.585 265.294L543.293 269.004C538.172 254.819 530.407 241.588 520.18 229.652C518.44 227.611 516.602 225.602 514.562 223.506C500.717 209.097 486.37 200.373 480.092 198.018C467.663 193.359 456.269 191.456 443.13 191.842C442.455 191.842 441.764 191.893 441.069 191.953L443.409 216.223L443.419 216.228Z" fill="#241F20"/>
<path d="M366.683 143.384C369.687 133.99 372.605 126.682 375.026 119.059C363.485 121.536 353.203 122.206 344.657 121.962L344.575 141.923C350.975 143.024 358.573 143.775 366.683 143.379" fill="#1DC4F4"/>
<path d="M362.242 144.932C356.426 144.932 350.427 144.399 344.332 143.344C343.642 143.222 343.134 142.618 343.134 141.918L343.215 121.957C343.221 121.566 343.378 121.196 343.657 120.927C343.936 120.653 344.357 120.521 344.702 120.521C354.437 120.81 364.536 119.836 374.727 117.648C375.255 117.537 375.757 117.709 376.097 118.09C376.442 118.475 376.559 119.013 376.402 119.501C375.229 123.195 373.935 126.819 372.58 130.641C371.134 134.696 369.606 138.984 368.058 143.821C367.876 144.394 367.353 144.795 366.754 144.826C365.267 144.902 363.76 144.932 362.242 144.932ZM346.027 140.705C352.736 141.791 359.319 142.217 365.617 141.984C367.069 137.497 368.5 133.483 369.855 129.671C370.916 126.692 371.936 123.84 372.885 120.972C363.805 122.754 354.878 123.591 346.093 123.439L346.022 140.705H346.027Z" fill="#241F20"/>
<path d="M582.046 264.837C581.244 265.106 580.493 265.319 579.686 265.588C574.596 267.304 568.699 269.288 561.411 270.359C558.087 270.79 554.498 271.11 550.586 271.11C548.926 271.11 547.261 271.059 545.495 270.948C539.76 253.961 530.864 239.918 521.272 228.718C518.648 217.09 516.77 205.458 515.217 193.938C514.522 188.522 513.877 183.112 513.288 177.809C513.877 178.078 514.466 178.347 515.06 178.667C530.331 186.117 546.678 198.333 560.289 217.786C569.023 230.271 576.58 245.704 582.046 264.837Z" fill="#2ABBAD"/>
<path d="M550.59 272.547C548.895 272.547 547.21 272.491 545.414 272.379C544.825 272.349 544.318 271.963 544.13 271.405C539.039 256.311 530.98 242.258 520.18 229.652C520.028 229.474 519.921 229.261 519.871 229.027C517.551 218.74 515.623 207.651 513.796 194.126C513.1 188.695 512.451 183.275 511.862 177.961C511.806 177.449 512.035 176.936 512.451 176.632C512.867 176.327 513.425 176.271 513.892 176.484C514.516 176.764 515.136 177.048 515.76 177.383C533.914 186.239 549.317 199.556 561.482 216.948C570.896 230.413 578.285 246.384 583.442 264.421C583.65 265.167 583.244 265.944 582.508 266.193L580.153 266.944C574.951 268.695 569.049 270.679 561.629 271.78C557.564 272.298 554.062 272.542 550.596 272.542M546.551 269.557C551.418 269.801 555.757 269.628 561.233 268.923C568.369 267.872 574.139 265.929 579.229 264.213L580.27 263.878C575.225 246.699 568.11 231.474 559.107 218.608C547.358 201.819 532.528 188.913 515.019 180.25C515.526 184.706 516.074 189.233 516.653 193.75C518.445 207.027 520.333 217.943 522.606 228.053C533.31 240.609 541.359 254.57 546.551 269.557Z" fill="#241F20"/>
<path d="M514.237 113.365C515.115 115.877 515.065 117.557 515.065 117.557C514.856 122.059 514.796 132.082 514.841 145.323C543.693 148.713 557.3 159.498 557.3 159.498C557.3 159.498 557.96 159.853 559.112 160.553L558.112 112.248C546.997 111.599 532.863 111.817 514.242 113.37" fill="#7BC142"/>
<path d="M559.107 162C558.843 162 558.589 161.924 558.355 161.787C557.264 161.122 556.635 160.782 556.615 160.767C556.27 160.518 542.704 150.048 514.669 146.759C513.943 146.673 513.395 146.059 513.395 145.328C513.349 131.067 513.42 121.698 513.618 117.491C513.618 117.491 513.633 116.024 512.872 113.847C512.725 113.426 512.781 112.959 513.024 112.583C513.268 112.213 513.674 111.974 514.115 111.929C531.655 110.472 546.069 110.102 558.183 110.807C558.934 110.848 559.528 111.467 559.543 112.223L560.543 160.528C560.558 161.056 560.274 161.548 559.817 161.807C559.594 161.934 559.35 162 559.101 162M516.277 144.049C541.44 147.231 554.727 155.864 557.604 157.93L556.686 113.619C545.399 113.045 532.097 113.395 516.12 114.669C516.526 116.364 516.506 117.456 516.501 117.608C516.313 121.668 516.237 130.554 516.277 144.054" fill="#241F20"/>
<path d="M514.841 145.323C514.872 154.991 514.958 166.39 515.085 178.657C530.346 186.117 546.693 198.333 560.304 217.811L559.117 160.554C557.965 159.853 557.305 159.498 557.305 159.498C557.305 159.498 543.699 148.718 514.846 145.323" fill="#20B24B"/>
<path d="M560.299 219.252C559.832 219.252 559.391 219.029 559.117 218.633C547.241 201.647 532.213 188.634 514.45 179.956C513.958 179.717 513.649 179.215 513.643 178.672C513.522 166.4 513.43 155.001 513.4 145.328C513.4 144.917 513.578 144.526 513.887 144.252C514.192 143.973 514.613 143.851 515.014 143.892C543.475 147.236 557.183 157.574 558.163 158.336C558.193 158.336 558.843 158.701 559.868 159.325C560.289 159.584 560.548 160.031 560.558 160.528L561.746 217.781C561.756 218.415 561.355 218.978 560.751 219.181C560.609 219.227 560.457 219.258 560.309 219.258M516.516 177.753C533.051 185.99 547.236 197.906 558.761 213.228L557.686 161.376C557.011 160.98 556.635 160.777 556.615 160.767C556.275 160.528 543.226 150.449 516.293 146.957C516.323 156.026 516.404 166.512 516.516 177.753Z" fill="#241F20"/>
<path d="M558.102 112.248L559.107 160.559C561.903 162.269 567.765 166.151 575.301 172.83C574.987 158.422 574.84 148.018 574.84 148.018L577.128 145.714V135.396C577.128 135.396 577.92 134.894 579.24 134.264L578.412 114.898C572.896 113.669 566.318 112.72 558.097 112.243" fill="#D2DC26"/>
<path d="M575.306 174.272C574.956 174.272 574.616 174.15 574.347 173.911C566.897 167.314 561.132 163.482 558.35 161.792C557.934 161.533 557.675 161.086 557.665 160.584L556.66 112.279C556.65 111.878 556.818 111.492 557.102 111.208C557.391 110.929 557.767 110.812 558.188 110.807C565.912 111.259 572.637 112.137 578.732 113.497C579.377 113.639 579.833 114.187 579.864 114.842L580.686 134.203C580.711 134.782 580.392 135.32 579.864 135.564C579.341 135.822 578.905 136.051 578.575 136.228V145.714C578.575 146.1 578.428 146.46 578.159 146.734L576.301 148.612C576.342 151.027 576.484 160.432 576.758 172.8C576.768 173.373 576.443 173.896 575.92 174.14C575.728 174.231 575.52 174.272 575.317 174.272M560.533 159.741C563.223 161.431 567.902 164.609 573.794 169.608C573.52 156.91 573.398 148.038 573.398 148.038C573.388 147.652 573.545 147.277 573.814 147.003L575.682 145.115V135.401C575.682 134.909 575.936 134.447 576.352 134.178C576.352 134.178 576.864 133.853 577.758 133.391L577.022 116.075C571.774 114.974 566.039 114.217 559.573 113.781L560.528 159.741H560.533Z" fill="#241F20"/>
<path d="M578.423 114.903L579.245 134.264C582.32 132.798 588.558 130.564 596.48 131.955V120.906C591.405 118.714 585.863 116.562 578.428 114.903" fill="#20B24B"/>
<path d="M579.245 135.711C578.986 135.711 578.732 135.64 578.499 135.503C578.088 135.259 577.824 134.817 577.803 134.33L576.981 114.964C576.961 114.517 577.154 114.086 577.494 113.801C577.839 113.512 578.285 113.395 578.732 113.502C586.37 115.197 592.049 117.425 597.043 119.582C597.576 119.805 597.916 120.328 597.916 120.907V131.955C597.916 132.386 597.723 132.787 597.404 133.056C597.079 133.336 596.642 133.452 596.226 133.371C588.705 132.057 582.752 134.188 579.864 135.564C579.671 135.66 579.458 135.711 579.24 135.711M579.945 116.74L580.6 132.112C583.873 130.844 588.933 129.555 595.033 130.285V121.856C590.796 120.049 586.02 118.217 579.95 116.74" fill="#241F20"/>
<path d="M442.074 217.304C440.683 216.821 439.232 216.395 437.786 216.02C430.873 214.035 423.798 212.695 416.886 211.838C412.278 211.3 407.72 210.929 403.275 210.711C391.698 210.173 381.786 209.584 373.103 208.945C366.297 208.407 360.243 207.767 354.883 207.067C351.133 206.585 347.702 206.047 344.54 205.407C344.433 204.606 344.327 203.748 344.327 202.941V198.495L344.383 195.602V190.725C345.773 191.207 347.225 191.689 348.722 192.121C350.757 192.709 353.224 193.298 356.01 193.836C360.994 194.856 367.048 195.709 373.641 196.247C386.288 197.267 400.808 197.104 413.455 194.374C415.49 193.892 417.368 193.623 419.297 193.247C426.691 191.857 433.39 190.994 439.501 190.624C439.877 194.536 440.252 198.449 440.628 202.362C441.11 207.397 441.592 212.386 442.074 217.314" fill="#6FCACA"/>
<path d="M442.074 218.745C441.917 218.745 441.759 218.72 441.602 218.664C440.247 218.192 438.836 217.776 437.42 217.41C430.995 215.568 424.032 214.172 416.708 213.264C412.151 212.736 407.604 212.365 403.203 212.147C391.947 211.635 382.071 211.051 372.996 210.376C366.607 209.879 360.456 209.239 354.695 208.498C350.661 207.981 347.24 207.427 344.251 206.813C343.652 206.697 343.19 206.204 343.109 205.59C342.992 204.727 342.88 203.799 342.88 202.936L342.941 190.71C342.941 190.243 343.165 189.807 343.545 189.538C343.926 189.263 344.413 189.197 344.855 189.35C346.225 189.827 347.646 190.299 349.118 190.72C351.188 191.314 353.66 191.897 356.284 192.405C361.45 193.461 367.49 194.288 373.757 194.795C384.004 195.623 399.159 195.973 413.156 192.948C414.496 192.633 415.79 192.4 417.079 192.172L419.023 191.816C426.311 190.446 433.167 189.553 439.409 189.167C440.216 189.066 440.861 189.695 440.937 190.461L443.51 217.146C443.556 217.633 443.353 218.116 442.967 218.42C442.708 218.623 442.394 218.73 442.074 218.73M345.844 204.189C348.524 204.707 351.554 205.179 355.071 205.636C360.78 206.377 366.881 207.001 373.214 207.504C382.253 208.173 392.109 208.752 403.335 209.265C407.807 209.478 412.42 209.863 417.048 210.401C424.534 211.33 431.639 212.756 438.176 214.629C438.922 214.817 439.673 215.025 440.414 215.253L438.191 192.146C432.441 192.567 426.184 193.41 419.561 194.658L417.576 195.024C416.338 195.242 415.094 195.465 413.78 195.775C399.417 198.871 383.953 198.521 373.519 197.683C367.129 197.165 360.973 196.323 355.71 195.247C352.985 194.719 350.493 194.136 348.311 193.506C347.463 193.263 346.631 193.009 345.819 192.74L345.758 202.951C345.758 203.357 345.788 203.778 345.834 204.2" fill="#241F20"/>
<path d="M628.133 249.404C621.115 232.793 613.289 218.913 605.412 207.443C603.377 204.443 601.342 201.601 599.357 198.977C600.966 190.888 602.413 182.955 603.377 175.667C603.697 172.988 604.021 170.415 604.235 167.953C605.305 156.326 607.234 142.126 610.934 127.87C617.095 131.514 625.083 137.193 633.868 144.75C634.082 155.148 634.726 165.542 635.315 175.51C636.71 199.089 632.635 227.114 628.133 249.409" fill="#EE3450"/>
<path d="M628.134 250.845C627.56 250.845 627.032 250.5 626.804 249.967C620.379 234.747 612.781 220.719 604.22 208.26C602.271 205.387 600.251 202.55 598.206 199.845C597.952 199.52 597.855 199.094 597.937 198.693C599.84 189.111 601.114 181.737 601.941 175.474L602.037 174.683C602.327 172.308 602.601 170.024 602.793 167.821C604.154 153.052 606.422 139.487 609.528 127.499C609.645 127.063 609.96 126.702 610.381 126.525C610.792 126.357 611.274 126.383 611.66 126.616C618.547 130.691 626.768 136.736 634.807 143.648C635.117 143.917 635.3 144.303 635.305 144.714C635.508 154.524 636.091 164.329 636.655 173.815L636.751 175.419C638.208 200.094 633.64 229.428 629.544 249.693C629.423 250.317 628.91 250.779 628.276 250.845C628.23 250.85 628.179 250.85 628.134 250.85M600.9 198.622C602.839 201.21 604.758 203.905 606.61 206.626C614.466 218.06 621.526 230.809 627.616 244.567C631.412 224.795 635.208 198.17 633.874 175.581L633.782 173.972C633.229 164.675 632.656 155.067 632.442 145.409C625.322 139.334 618.095 133.965 611.847 130.098C609.026 141.471 606.945 154.235 605.671 168.07C605.478 170.293 605.199 172.607 604.91 175.018L604.813 175.825C603.991 182.026 602.743 189.274 600.9 198.612" fill="#241F20"/>
<path d="M671.638 59.0862C655.235 62.9078 645.678 73.865 640.248 88.5829C645.034 90.5216 649.855 92.572 654.763 94.8406C654.763 94.8406 659.285 96.627 666.537 100.728C665.938 80.0872 671.638 59.0812 671.638 59.0812" fill="#EE3450"/>
<path d="M666.537 102.179C666.288 102.179 666.045 102.113 665.827 101.986C658.762 97.9872 654.276 96.2007 654.235 96.1804C649.738 94.0996 645.145 92.1203 639.715 89.9177C638.989 89.6234 638.634 88.8114 638.898 88.0805C645.105 71.2565 655.707 61.3143 671.313 57.6805C671.8 57.5637 672.328 57.7211 672.678 58.0814C673.028 58.4519 673.16 58.9695 673.028 59.4618C672.972 59.6699 667.39 80.5135 667.978 100.687C667.994 101.205 667.725 101.702 667.283 101.961C667.055 102.098 666.796 102.174 666.537 102.174M642.1 87.776C647.018 89.7858 651.266 91.628 655.372 93.5312C655.473 93.5667 659.092 95.0081 665.05 98.2562C664.974 82.508 668.278 66.9071 669.653 61.091C656.717 64.7958 647.683 73.5555 642.105 87.7709" fill="#241F20"/>
<path d="M493.038 75.2252C533.467 65.9225 578.331 65.826 630.103 84.6802C639.903 71.4391 653.281 61.639 671.632 59.0913C671.632 59.0913 665.938 80.0922 666.532 100.738C671.673 103.646 678.189 107.742 685.452 113.187L685.548 73.2611C685.548 69.7491 684.95 66.5416 683.767 63.73L683.737 63.664C679.935 51.7121 667.192 41.3182 652.667 38.3645L571.272 21.6115C532.609 25.4127 501.245 34.9997 475.296 46.3071C481.584 53.869 487.715 63.4001 493.038 75.2303" fill="#1DC4F4"/>
<path d="M685.457 114.618C685.153 114.618 684.848 114.522 684.589 114.329C678.342 109.65 672.023 105.498 665.827 101.986C665.385 101.743 665.106 101.281 665.091 100.773C664.604 83.9697 668.298 66.7548 669.709 60.8423C654.336 63.522 641.41 71.8147 631.265 85.5227C630.889 86.0353 630.209 86.2484 629.61 86.02C583.457 69.2163 538.887 66.1356 493.363 76.6209C492.683 76.7731 492.008 76.4331 491.724 75.8089C486.837 64.9531 480.934 55.3358 474.184 47.2206C473.895 46.8704 473.783 46.4086 473.89 45.967C473.991 45.5255 474.301 45.1601 474.717 44.9774C505.285 31.6552 536.822 23.54 571.135 20.1651C571.282 20.1549 571.429 20.16 571.571 20.1854L652.966 36.9384C667.948 39.9885 681.169 50.7986 685.117 63.2174C686.361 66.161 687 69.5512 687 73.2561L686.899 113.177C686.899 113.725 686.589 114.223 686.102 114.466C685.899 114.568 685.681 114.618 685.457 114.618ZM667.958 99.8853C673.267 102.93 678.662 106.432 684.021 110.33L684.112 73.2561C684.112 69.942 683.549 66.9274 682.448 64.2781C678.723 52.6256 666.4 42.6225 652.388 39.7703L571.201 23.063C537.928 26.3517 507.295 34.1471 477.625 46.8704C483.817 54.5897 489.268 63.5524 493.871 73.5504C539.222 63.3291 583.65 66.4097 629.595 82.9496C640.593 68.4905 654.666 59.9795 671.44 57.6551C671.942 57.5688 672.404 57.7667 672.729 58.1271C673.043 58.4925 673.16 58.9949 673.033 59.4618C672.977 59.6648 667.547 79.9552 667.963 99.8802" fill="#241F20"/>
<path d="M475.296 46.302C501.25 34.9895 532.609 25.4077 571.272 21.6013L488.501 4.56409C474.484 9.39054 461.862 16.6328 450.631 24.8037C457.827 29.1328 466.653 35.9081 475.291 46.2969" fill="#CEEBEB"/>
<path d="M475.296 47.7485C474.88 47.7485 474.463 47.5658 474.184 47.2308C466.927 38.5066 458.751 31.3812 449.879 26.0523C449.468 25.7985 449.204 25.362 449.184 24.8748C449.164 24.3927 449.387 23.9308 449.778 23.6466C462.369 14.4809 475.24 7.61429 488.029 3.20907C488.273 3.12787 488.532 3.10757 488.791 3.16847L571.566 20.2006C572.261 20.3478 572.748 20.9771 572.713 21.6876C572.672 22.3982 572.124 22.9818 571.414 23.0478C537.4 26.3923 506.147 34.4364 475.864 47.6368C475.676 47.718 475.483 47.7535 475.291 47.7535M453.229 24.7175C461.38 29.8941 468.932 36.5578 475.712 44.5511C503.244 32.655 531.594 24.9814 562.06 21.1801L488.608 6.0613C476.803 10.1671 464.917 16.4349 453.234 24.7175" fill="#241F20"/>
<path d="M380.974 84.4367C381.33 76.8544 381.314 67.9983 380.802 57.2339C380.802 57.2339 390.135 57.8683 401.853 69.5056C411.43 60.3044 424.103 46.3072 440.008 33.1016C437.709 23.2051 435.065 17.7341 435.065 17.7341C435.065 17.7341 441.541 19.348 450.626 24.8139C461.857 16.643 474.479 9.39569 488.496 4.57431L482.934 3.4324C478.199 2.44783 465.582 0.742577 450.834 6.05117L371.418 35.9742C356.73 41.4706 344.748 57.1882 344.697 70.9977C344.697 70.9977 344.697 83.9342 344.778 88.6541L344.768 91.0546C355.411 92.4554 368.287 90.6232 380.969 84.4316" fill="#3FC3DB"/>
<path d="M351.747 92.9476C349.321 92.9476 346.93 92.7903 344.586 92.4858C343.865 92.3944 343.327 91.7803 343.332 91.0495L343.342 88.6541C343.266 83.9545 343.261 71.0027 343.261 71.0027C343.317 56.6299 355.715 40.3185 370.915 34.6191L450.331 4.70114C465.465 -0.749552 478.386 1.00137 483.233 2.01132L488.796 3.1583C489.435 3.28518 489.897 3.82822 489.943 4.47784C489.988 5.13253 489.582 5.72632 488.973 5.9344C476.453 10.2432 463.841 16.983 451.478 25.9761C451.011 26.3212 450.392 26.3415 449.885 26.0472C444.657 22.9006 440.298 21.0583 437.613 20.0737C438.613 22.6824 440.074 26.9759 441.419 32.7717C441.541 33.3046 441.353 33.8578 440.932 34.208C429.716 43.5259 419.916 53.4428 412.039 61.4056C408.71 64.7654 405.655 67.8561 402.858 70.5409C402.29 71.0839 401.402 71.0738 400.843 70.5257C392.505 62.2481 385.405 59.7258 382.329 58.9797C382.74 68.592 382.776 76.9558 382.421 84.5026C382.4 85.0304 382.086 85.4973 381.619 85.7308C371.925 90.4709 361.557 92.9476 351.752 92.9476M346.225 89.7757C356.862 90.9023 368.632 88.6946 379.574 83.5129C379.893 75.8089 379.832 67.2268 379.36 57.2999C379.345 56.8938 379.503 56.4929 379.797 56.2036C380.086 55.9194 380.487 55.7469 380.898 55.7976C381.289 55.823 390.373 56.5589 401.858 67.4958C404.361 65.0597 407.071 62.3192 409.984 59.3756C417.744 51.5294 427.361 41.8055 438.405 32.5636C436.227 23.5096 433.796 18.4091 433.771 18.3583C433.527 17.8559 433.598 17.257 433.954 16.8206C434.314 16.3841 434.877 16.1963 435.42 16.3334C435.684 16.3993 441.82 17.9625 450.554 23.0833C461.339 15.3285 472.312 9.25354 483.259 4.96505L482.66 4.83817C478.046 3.88405 465.765 2.2194 451.331 7.41126L371.936 37.3241C357.766 42.6327 346.21 57.7414 346.159 71.0078C346.159 71.0078 346.159 83.924 346.235 88.6338V89.7757H346.225Z" fill="#241F20"/>
<path d="M610.909 127.89C617.065 131.534 625.089 137.172 633.853 144.75C633.381 124.419 634.432 104.346 640.248 88.588C636.832 87.2076 633.452 85.8982 630.103 84.6802C620.917 97.0889 614.883 112.517 610.909 127.89Z" fill="#EE3450"/>
<path d="M633.858 146.186C633.513 146.186 633.183 146.069 632.909 145.836C625.205 139.177 617.136 133.249 610.172 129.128C609.619 128.803 609.35 128.149 609.513 127.525C614.116 109.726 620.653 95.0234 628.945 83.8175C629.326 83.3049 629.996 83.0968 630.6 83.3201C633.965 84.5483 637.365 85.8526 640.791 87.2432C641.511 87.5376 641.867 88.3546 641.598 89.0804C635.193 106.437 634.934 129.144 635.294 144.709C635.305 145.277 634.985 145.8 634.462 146.049C634.269 146.14 634.061 146.181 633.853 146.181M612.578 127.205C618.719 130.925 625.621 135.944 632.351 141.573C632.117 126.372 632.721 105.844 638.426 89.4052C635.812 88.3597 633.214 87.3599 630.625 86.4109C623.018 96.9824 616.948 110.7 612.578 127.21" fill="#241F20"/>
<path d="M671.638 59.0863C653.281 61.634 639.903 71.4341 630.108 84.6751C633.462 85.8983 636.842 87.1975 640.253 88.583C645.683 73.8651 655.235 62.9079 671.643 59.0863" fill="#EE3450"/>
<path d="M640.248 90.0243C640.065 90.0243 639.883 89.9939 639.705 89.9178C636.315 88.5475 632.95 87.2482 629.61 86.0302C629.189 85.8779 628.854 85.5278 628.727 85.0913C628.595 84.6498 628.672 84.1829 628.946 83.8174C640.035 68.8306 654.331 60.0303 671.435 57.6551C672.181 57.5485 672.912 58.0611 673.054 58.8224C673.191 59.5786 672.714 60.3196 671.962 60.487C657.382 63.8874 647.45 73.2358 641.603 89.0753C641.471 89.4458 641.192 89.7401 640.832 89.8975C640.649 89.9837 640.451 90.0193 640.248 90.0193M632.432 83.9951C634.747 84.8578 637.076 85.7562 639.421 86.69C642.867 77.91 647.571 71.089 653.626 66.1357C645.643 70.1704 638.553 76.1337 632.432 83.9951Z" fill="#241F20"/>
<path d="M381 84.4365C380.731 89.9024 380.249 94.6731 379.66 99.0123C378.533 106.727 376.93 112.999 375.052 119.054C363.475 121.521 353.188 122.216 344.667 121.947L344.718 106.351L344.774 91.0799C355.436 92.4755 368.302 90.6536 381 84.4365Z" fill="#00B3E4"/>
<path d="M348.159 123.449C346.976 123.449 345.788 123.434 344.621 123.393C343.84 123.368 343.215 122.729 343.215 121.947L343.322 91.0749C343.327 90.6639 343.51 90.2731 343.819 89.999C344.129 89.725 344.55 89.6032 344.956 89.6488C356.187 91.1206 368.779 88.8064 380.36 83.1425C380.812 82.9192 381.36 82.9496 381.786 83.2338C382.208 83.513 382.456 84.0002 382.436 84.5077C382.192 89.4915 381.751 94.2976 381.086 99.2053C380.086 106.042 378.65 112.294 376.422 119.48C376.265 119.983 375.854 120.358 375.346 120.465C366.043 122.444 356.918 123.444 348.153 123.444M346.113 120.541C355.015 120.719 364.379 119.79 373.92 117.821C375.955 111.122 377.295 105.224 378.229 98.8044C378.777 94.7849 379.168 90.8263 379.421 86.7712C368.51 91.6738 356.862 93.7597 346.205 92.699L346.108 120.546L346.113 120.541Z" fill="#241F20"/>
<path d="M603.377 175.662C602.413 182.95 600.966 190.883 599.358 198.972C590.674 187.558 582.315 178.986 575.296 172.82C574.977 158.402 574.865 148.008 574.865 148.008L577.118 145.704V135.416C577.118 135.416 585.157 129.95 596.465 131.935C597.805 132.204 599.195 132.473 600.591 132.955L603.377 175.667V175.662Z" fill="#0C9647"/>
<path d="M599.357 200.414C598.911 200.414 598.484 200.211 598.205 199.845C590.628 189.878 582.594 181.154 574.342 173.901C574.038 173.637 573.86 173.257 573.85 172.851C573.53 158.422 573.423 148.023 573.423 148.023C573.418 147.642 573.566 147.272 573.829 146.998L575.672 145.11V135.411C575.672 134.934 575.91 134.488 576.306 134.219C576.656 133.98 584.985 128.453 596.713 130.509C598.236 130.808 599.621 131.087 601.063 131.585C601.611 131.772 601.991 132.27 602.027 132.848L604.813 175.561C604.823 175.657 604.818 175.754 604.808 175.845C603.966 182.174 602.687 189.609 600.773 199.246C600.662 199.805 600.235 200.241 599.682 200.373C599.576 200.398 599.469 200.409 599.362 200.409M576.722 172.16C584.244 178.829 591.577 186.691 598.556 195.577C600.109 187.553 601.189 181.143 601.925 175.617L599.215 134.036C598.251 133.762 597.277 133.569 596.328 133.381C587.416 131.823 580.605 135.092 578.56 136.234V145.709C578.56 146.084 578.412 146.45 578.148 146.714L576.316 148.597C576.342 150.951 576.453 160.092 576.722 172.16Z" fill="#241F20"/>
<path d="M549.494 143.547H545.845V130.564C545.845 129.555 546.667 128.737 547.672 128.737C548.677 128.737 549.494 129.56 549.494 130.564V143.547Z" fill="#241F20"/>
<path d="M527.483 174.886H523.834V161.903C523.834 160.894 524.656 160.076 525.661 160.076C526.666 160.076 527.483 160.899 527.483 161.903V174.886Z" fill="#241F20"/>
<path d="M549.748 107.752H545.592V102.555C545.592 101.408 546.52 100.474 547.672 100.474C548.824 100.474 549.753 101.408 549.753 102.555V107.752H549.748Z" fill="#241F20"/>
</svg>
